<svg width="558" height="429" viewBox="0 0 558 429" fill="none" xmlns="http://www.w3.org/2000/svg">
<path opacity="0.18" d="M-17.7987 -59.3911C-19.5174 -57.0707 -21.199 -54.7451 -22.8711 -52.4334C-49.613 -15.2546 -74.8285 24.115 -86.9137 68.283C-98.9989 112.451 -96.4078 162.603 -70.7318 200.453C-57.3832 220.085 -38.7448 235.374 -21.1868 251.345C11.7487 281.277 41.8556 314.64 78.1904 340.312C114.525 365.985 159.129 383.783 203.146 376.984C279.567 365.23 293.756 285.749 317.014 225.195C330.843 189.277 352.343 156.808 380.013 130.054C398.273 112.394 419.046 97.5027 437.544 80.0281C450.857 67.4573 463.155 53.3128 471.544 36.9473C479.607 21.2333 480.381 5.37121 483.884 -11.5866C490.485 -43.9073 494.374 -78.5013 482.562 -110.132C473.084 -134.665 455.356 -155.13 432.426 -168.008C372.17 -202.238 311.722 -165.522 248.139 -168.845C211.164 -170.743 174.208 -180.123 137.54 -175.068C71.8137 -165.956 21.8654 -113.279 -17.7987 -59.3911Z" fill="white"/>
</svg>
