<svg width="66" height="70" viewBox="0 0 66 70" fill="none" xmlns="http://www.w3.org/2000/svg">
<path d="M3.41379 37.3333H9.46232C9.23561 37.9801 9.20099 38.6812 9.36284 39.3481C9.5247 40.015 9.87577 40.6177 10.3717 41.0801L19.7138 49.8592L19.7147 49.8584C19.7225 49.8657 19.7289 49.8738 19.7376 49.8808L34.5012 63H34.1379C33.8361 63 33.5467 63.1229 33.3333 63.3417C33.1199 63.5605 33 63.8572 33 64.1667V68.8333C33 69.1428 33.1199 69.4395 33.3333 69.6583C33.5467 69.8771 33.8361 70 34.1379 70H47.7931C48.0949 70 48.3843 69.8771 48.5977 69.6583C48.8111 69.4395 48.931 69.1428 48.931 68.8333V64.1667C48.931 63.8572 48.8111 63.5605 48.5977 63.3417C48.3843 63.1229 48.0949 63 47.7931 63V61.1498L48.4025 60.5251C48.9325 59.9847 49.3527 59.3419 49.6387 58.6338C49.9248 57.9258 50.071 57.1667 50.069 56.4003V49.2527L54.194 39.9486C54.561 39.1247 54.6006 38.1866 54.3043 37.3333H62.5862C63.4913 37.3323 64.359 36.9632 64.999 36.307C65.6389 35.6509 65.9989 34.7613 66 33.8333V31.5C66 31.1906 65.8801 30.8938 65.6667 30.675C65.4533 30.4562 65.1639 30.3333 64.8621 30.3333H60.3103V29.1667C60.3103 15.6572 49.5905 4.66667 36.4138 4.66667V2.33333H37.5517C37.8535 2.33333 38.143 2.21042 38.3564 1.99162C38.5698 1.77283 38.6897 1.47609 38.6897 1.16667C38.6897 0.857247 38.5698 0.560501 38.3564 0.341709C38.143 0.122916 37.8535 0 37.5517 0H28.4483C28.1465 0 27.857 0.122916 27.6436 0.341709C27.4302 0.560501 27.3103 0.857247 27.3103 1.16667C27.3103 1.47609 27.4302 1.77283 27.6436 1.99162C27.857 2.21042 28.1465 2.33333 28.4483 2.33333H29.5862V4.66667C16.4095 4.66667 5.68965 15.6572 5.68965 29.1667V30.3333H1.13793C0.836133 30.3333 0.546696 30.4562 0.333292 30.675C0.119889 30.8938 0 31.1906 0 31.5V33.8333C0.00105407 34.7613 0.361059 35.6509 1.00104 36.307C1.64102 36.9632 2.50872 37.3323 3.41379 37.3333ZM11.6178 38.0771C11.6979 37.8559 11.8429 37.6656 12.0328 37.5324C12.2228 37.3992 12.4483 37.3297 12.6784 37.3333H13.328C13.5464 37.3336 13.7602 37.3982 13.9438 37.5194C14.1275 37.6407 14.2733 37.8134 14.364 38.0171L15.2194 39.9465V39.9483L17.1368 44.273L11.9094 39.3604C11.7373 39.2037 11.6169 38.9961 11.5647 38.7663C11.5124 38.5364 11.531 38.2956 11.6178 38.0771ZM46.6552 67.6667H35.2759V65.3333H46.6552V67.6667ZM52.043 37.8684C52.1478 38.0318 52.21 38.22 52.2239 38.415C52.2378 38.61 52.2028 38.8055 52.1222 38.9827L47.8951 48.5171C47.8279 48.6688 47.7931 48.8334 47.7931 49V56.4003C47.7943 56.8601 47.7066 57.3156 47.535 57.7404C47.3633 58.1653 47.1113 58.551 46.7933 58.8752L45.8505 59.8417C45.7448 59.95 45.661 60.0786 45.6038 60.2202C45.5467 60.3617 45.5172 60.5135 45.5172 60.6667V63H37.9762L21.4159 48.2854L17.2909 38.9829C17.212 38.8051 17.178 38.6099 17.1918 38.4151C17.2057 38.2203 17.267 38.0322 17.3702 37.8681C17.4734 37.7039 17.6151 37.569 17.7823 37.4755C17.9496 37.3821 18.137 37.3332 18.3275 37.3333H19.0761C19.2876 37.3326 19.4951 37.3926 19.675 37.5066C19.8549 37.6205 20.0001 37.7839 20.094 37.9782L24.0167 46.0218C24.1414 46.2773 24.3531 46.4771 24.6119 46.5832L35.9912 51.2499C36.2133 51.341 36.4577 51.358 36.6897 51.2985L41.2415 50.1318C41.3941 50.0927 41.5371 50.0216 41.6616 49.9229C41.786 49.8243 41.8891 49.7003 41.9645 49.5587L48.1451 37.9413C48.2431 37.7573 48.3875 37.6037 48.5634 37.4967C48.7392 37.3897 48.9399 37.3333 49.1444 37.3333H51.0866C51.2772 37.3315 51.4652 37.3798 51.6326 37.4734C51.8 37.5671 51.9413 37.703 52.043 37.8684ZM22.3239 37.3333H45.8763L40.2055 47.9923L36.4947 48.9433L25.8595 44.5812L22.3239 37.3333ZM31.8621 2.33333H34.1379V4.66667H31.8621V2.33333ZM7.96552 29.1667C7.96552 16.9439 17.6645 7 29.5862 7H36.4138C48.3355 7 58.0345 16.9439 58.0345 29.1667V30.3333H7.96552V29.1667ZM2.27586 32.6667H63.7241V33.8333C63.7238 34.1426 63.6038 34.4392 63.3905 34.6579C63.1771 34.8766 62.8879 34.9997 62.5862 35H3.41379C3.1121 34.9997 2.82286 34.8766 2.60953 34.6579C2.3962 34.4392 2.2762 34.1426 2.27586 33.8333V32.6667Z" fill="#07AC04"/>
</svg>
