<svg width="65" height="72" viewBox="0 0 65 72" fill="none" xmlns="http://www.w3.org/2000/svg">
<path d="M47.6281 62.6838C47.6281 63.6 47.8997 64.4957 48.4088 65.2575C48.9178 66.0193 49.6413 66.613 50.4878 66.9637C51.3343 67.3143 52.2657 67.406 53.1643 67.2273C54.0629 67.0485 54.8884 66.6073 55.5363 65.9595C56.1841 65.3116 56.6253 64.4862 56.8041 63.5875C56.9828 62.6889 56.8911 61.7575 56.5405 60.911C56.1898 60.0645 55.5961 59.341 54.8343 58.832C54.0724 58.323 53.1768 58.0513 52.2606 58.0513C51.0324 58.0526 49.8549 58.5412 48.9864 59.4096C48.1179 60.2781 47.6294 61.4556 47.6281 62.6838ZM54.5768 62.6838C54.5768 63.1419 54.441 63.5897 54.1865 63.9706C53.932 64.3515 53.5702 64.6484 53.147 64.8237C52.7237 64.999 52.258 65.0449 51.8087 64.9555C51.3594 64.8662 50.9467 64.6456 50.6227 64.3216C50.2988 63.9977 50.0782 63.585 49.9888 63.1357C49.8994 62.6864 49.9453 62.2206 50.1206 61.7974C50.2959 61.3742 50.5928 61.0124 50.9737 60.7579C51.3546 60.5034 51.8025 60.3675 52.2606 60.3675C52.8747 60.3683 53.4634 60.6125 53.8976 61.0467C54.3318 61.481 54.5761 62.0697 54.5768 62.6838Z" fill="#07AC04"/>
<path d="M63.8419 28.9532H54.5768C54.2697 28.9532 53.9751 29.0752 53.7579 29.2924C53.5407 29.5096 53.4187 29.8042 53.4187 30.1114V31.2695H51.1025C50.8594 31.2695 50.6224 31.3459 50.4252 31.4881C50.228 31.6302 50.0806 31.8308 50.0037 32.0614L47.9509 38.2183H36.0468V17.3719H58.0512C58.3584 17.3719 58.653 17.2499 58.8701 17.0327C59.0873 16.8155 59.2094 16.521 59.2094 16.2138C59.2094 11.7666 56.3575 7.63062 51.1777 4.57027C46.1891 1.62283 39.582 0 32.5724 0C25.5628 0 18.9557 1.62283 13.967 4.57027C8.78731 7.63062 5.93541 11.7666 5.93541 16.2138C5.93541 16.521 6.05743 16.8155 6.27462 17.0327C6.49181 17.2499 6.78639 17.3719 7.09354 17.3719H30.2561V38.2183H19.833V34.1648C19.8318 33.0901 19.4043 32.0598 18.6444 31.2999C17.8845 30.54 16.8542 30.1125 15.7795 30.1114H5.93541C5.62826 30.1114 5.33368 30.2334 5.11649 30.4506C4.8993 30.6678 4.77728 30.9623 4.77728 31.2695V38.2183H1.15813C0.850974 38.2183 0.5564 38.3403 0.339208 38.5575C0.122017 38.7747 0 39.0692 0 39.3764V42.8508C0 43.1579 0.122017 43.4525 0.339208 43.6697C0.5564 43.8869 0.850974 44.0089 1.15813 44.0089H4.77728V55.5902C4.77924 57.4325 5.51197 59.1988 6.81469 60.5016C8.11742 61.8043 9.88373 62.537 11.7261 62.539H12.8842V69.4878H10.5679C10.2608 69.4878 9.9662 69.6098 9.74901 69.827C9.53182 70.0442 9.4098 70.3387 9.4098 70.6459C9.4098 70.953 9.53182 71.2476 9.74901 71.4648C9.9662 71.682 10.2608 71.804 10.5679 71.804H17.5167C17.8239 71.804 18.1184 71.682 18.3356 71.4648C18.5528 71.2476 18.6748 70.953 18.6748 70.6459C18.6748 70.3387 18.5528 70.0442 18.3356 69.827C18.1184 69.6098 17.8239 69.4878 17.5167 69.4878H15.2004V62.539H42.9955C42.995 64.3221 43.5091 66.0675 44.4761 67.5657C45.443 69.0639 46.8217 70.2513 48.4468 70.9853C50.0719 71.7193 51.8742 71.9687 53.6376 71.7037C55.4009 71.4387 57.0503 70.6705 58.3878 69.4912C59.7254 68.312 60.6942 66.7718 61.178 65.0556C61.6619 63.3393 61.6402 61.5199 61.1155 59.8157C60.5909 58.1115 59.5856 56.5948 58.2204 55.4478C56.8551 54.3008 55.1879 53.5721 53.4187 53.3492V44.0089H54.5768C54.884 44.0089 55.1786 43.8869 55.3958 43.6697C55.613 43.4525 55.735 43.1579 55.735 42.8508V39.3764C55.735 39.0692 55.613 38.7747 55.3958 38.5575C55.1786 38.3403 54.884 38.2183 54.5768 38.2183H50.3931L51.9378 33.5857H53.4187C53.4187 33.8929 53.5407 34.1875 53.7579 34.4047C53.9751 34.6219 54.2697 34.7439 54.5768 34.7439H63.8419C64.149 34.7439 64.4436 34.6219 64.6608 34.4047C64.878 34.1875 65 33.8929 65 33.5857V30.1114C65 29.8042 64.878 29.5096 64.6608 29.2924C64.4436 29.0752 64.149 28.9532 63.8419 28.9532ZM8.33708 15.0557C8.80323 11.8882 11.1803 8.90746 15.1454 6.56514C19.7823 3.82472 25.971 2.31626 32.5724 2.31626C39.1737 2.31626 45.3625 3.82472 49.9993 6.56514C53.9645 8.90746 56.3415 11.8882 56.8077 15.0557H8.33708ZM33.7305 17.3719V38.2183H32.5724V17.3719H33.7305ZM7.09354 32.4276H15.7795C16.2401 32.428 16.6818 32.6111 17.0075 32.9369C17.3332 33.2626 17.5163 33.7042 17.5167 34.1648V38.2183H7.09354V32.4276ZM42.997 60.2227H11.7261C10.4979 60.2213 9.32036 59.7328 8.4519 58.8644C7.58343 57.9959 7.09492 56.8184 7.09354 55.5902V44.0089H51.1025V53.3492C49.2564 53.5844 47.5236 54.369 46.1289 55.6011C44.7342 56.8332 43.7419 58.456 43.2807 60.2589C43.188 60.235 43.0927 60.2229 42.997 60.2227ZM59.2094 62.539C59.2094 63.9133 58.8018 65.2568 58.0383 66.3995C57.2747 67.5422 56.1895 68.4329 54.9198 68.9588C53.65 69.4847 52.2529 69.6224 50.9049 69.3542C49.557 69.0861 48.3189 68.4243 47.3471 67.4525C46.3753 66.4807 45.7134 65.2425 45.4453 63.8946C45.1772 62.5467 45.3148 61.1495 45.8407 59.8798C46.3667 58.6101 47.2573 57.5248 48.4001 56.7613C49.5428 55.9977 50.8862 55.5902 52.2606 55.5902C54.1029 55.5922 55.8692 56.3249 57.1719 57.6276C58.4747 58.9303 59.2074 60.6966 59.2094 62.539ZM53.4187 40.5345V41.6926H2.31626V40.5345H53.4187ZM62.6837 32.4276H55.735V31.2695H62.6837V32.4276Z" fill="#07AC04"/>
<path d="M9.40984 47.4833H19.833C20.1402 47.4833 20.4347 47.3613 20.6519 47.1441C20.8691 46.9269 20.9911 46.6323 20.9911 46.3252C20.9911 46.018 20.8691 45.7235 20.6519 45.5063C20.4347 45.2891 20.1402 45.1671 19.833 45.1671H9.40984C9.10268 45.1671 8.80811 45.2891 8.59092 45.5063C8.37373 45.7235 8.25171 46.018 8.25171 46.3252C8.25171 46.6323 8.37373 46.9269 8.59092 47.1441C8.80811 47.3613 9.10268 47.4833 9.40984 47.4833Z" fill="#07AC04"/>
<path d="M23.3074 47.4833H24.4656C24.7727 47.4833 25.0673 47.3613 25.2845 47.1441C25.5017 46.9269 25.6237 46.6323 25.6237 46.3252C25.6237 46.018 25.5017 45.7235 25.2845 45.5063C25.0673 45.2891 24.7727 45.1671 24.4656 45.1671H23.3074C23.0003 45.1671 22.7057 45.2891 22.4885 45.5063C22.2713 45.7235 22.1493 46.018 22.1493 46.3252C22.1493 46.6323 22.2713 46.9269 22.4885 47.1441C22.7057 47.3613 23.0003 47.4833 23.3074 47.4833Z" fill="#07AC04"/>
</svg>
