<svg width="62" height="62" viewBox="0 0 62 62" fill="none" xmlns="http://www.w3.org/2000/svg">
<path d="M2.06655 53.9061C0.832482 54.3424 0.00546525 55.5069 3.9213e-05 56.8158V59.9155C3.9213e-05 61.0568 0.925249 61.9821 2.06655 61.9821H59.9289C61.0702 61.9821 61.9954 61.0568 61.9954 59.9155V56.8158C61.99 55.5069 61.163 54.3424 59.9289 53.9061V16.3317C60.3609 16.185 60.7528 15.9398 61.0738 15.6157C61.6669 15.0392 61.9996 14.2461 61.9954 13.419C61.9954 11.707 60.6076 10.3192 58.8957 10.3192H47.5298V6.1862C47.5298 4.47424 46.142 3.08643 44.4301 3.08643H30.9678C30.8149 2.90974 30.6578 2.73512 30.4863 2.5698C27.588 -0.343985 23.362 -0.856481 21.0681 1.42598C20.6019 1.89852 20.2409 2.46441 20.0091 3.08643H17.5654C15.8534 3.08643 14.4656 4.47424 14.4656 6.1862V10.3192H3.09981C2.28138 10.3126 1.49532 10.6385 0.921704 11.2223C0.328616 11.7988 -0.00415719 12.5919 3.9213e-05 13.419C0.00546525 14.7279 0.832482 15.8923 2.06655 16.3286V53.9061ZM2.06655 56.8158C2.06655 56.2451 2.52916 55.7825 3.09981 55.7825H19.6319V59.9155H2.06655V56.8158ZM21.6984 59.9155V55.7825H40.2971V59.9155H21.6984ZM37.1973 53.716H24.7982V36.1506C24.7982 35.0093 25.7234 34.0841 26.8647 34.0841H35.1308C36.2721 34.0841 37.1973 35.0093 37.1973 36.1506V53.716ZM42.3636 59.9155V55.7825H58.8957C59.4663 55.7825 59.9289 56.2451 59.9289 56.8158V59.9155H42.3636ZM57.8624 53.716H39.2638V36.1506C39.2638 33.868 37.4134 32.0176 35.1308 32.0176H26.8647C24.5821 32.0176 22.7317 33.868 22.7317 36.1506V53.716H4.13307V16.5188H14.3437L11.4744 22.2564C11.4682 22.2688 11.4671 22.2823 11.4609 22.2947C11.4547 22.3071 11.4465 22.3401 11.4372 22.3629C11.4004 22.4623 11.3791 22.5669 11.3741 22.6728C11.3741 22.6873 11.3659 22.6987 11.3659 22.7131V25.8129C11.3582 27.5364 12.4253 29.0821 14.0396 29.6858C15.6539 30.2896 17.4734 29.8235 18.5987 28.518C19.3735 29.4242 20.5061 29.946 21.6984 29.946C22.8908 29.946 24.0234 29.4242 24.7982 28.518C25.573 29.4242 26.7056 29.946 27.898 29.946C29.0903 29.946 30.2229 29.4242 30.9977 28.518C31.7726 29.4242 32.9052 29.946 34.0975 29.946C35.2898 29.946 36.4225 29.4242 37.1973 28.518C37.9721 29.4242 39.1047 29.946 40.2971 29.946C41.4894 29.946 42.622 29.4242 43.3968 28.518C44.5214 29.8228 46.3396 30.2891 47.9534 29.6867C49.5672 29.0843 50.6351 27.5406 50.6296 25.8181V22.7183C50.6296 22.7038 50.6224 22.6925 50.6213 22.678C50.6164 22.5721 50.5951 22.4675 50.5583 22.368C50.549 22.3453 50.5439 22.3215 50.5346 22.2998C50.5253 22.2781 50.5273 22.274 50.5211 22.2616L47.6518 16.5188H57.8624V53.716ZM45.858 17.552L47.9245 21.685H14.0709L16.1374 17.552H45.858ZM42.3636 25.8181C42.3636 26.9594 41.4384 27.8846 40.2971 27.8846C39.1557 27.8846 38.2305 26.9594 38.2305 25.8181V23.7516H42.3636V25.8181ZM36.164 25.8181C36.164 26.9594 35.2388 27.8846 34.0975 27.8846C32.9562 27.8846 32.031 26.9594 32.031 25.8181V23.7516H36.164V25.8181ZM29.9645 25.8181C29.9645 26.9594 29.0393 27.8846 27.898 27.8846C26.7567 27.8846 25.8315 26.9594 25.8315 25.8181V23.7516H29.9645V25.8181ZM23.7649 25.8181C23.7649 26.9594 22.8397 27.8846 21.6984 27.8846C20.5571 27.8846 19.6319 26.9594 19.6319 25.8181V23.7516H23.7649V25.8181ZM17.5654 25.8181C17.5654 26.9594 16.6402 27.8846 15.4989 27.8846C14.3576 27.8846 13.4324 26.9594 13.4324 25.8181V23.7516H17.5654V25.8181ZM44.4301 23.7516H48.5631V25.8181C48.5631 26.9594 47.6379 27.8846 46.4966 27.8846C45.3553 27.8846 44.4301 26.9594 44.4301 25.8181V23.7516ZM58.8957 12.3857C59.4663 12.3857 59.9289 12.8483 59.9289 13.419C59.9296 13.6977 59.8152 13.9642 59.6127 14.1557C59.4236 14.3473 59.1649 14.4543 58.8957 14.4522H47.5298V12.3857H58.8957ZM21.7759 4.34183C22.2232 4.52424 22.6937 4.64352 23.1739 4.69624C24.3442 4.74087 25.2822 5.68021 25.3252 6.85058C25.3987 7.86148 25.8397 8.81049 26.5651 9.51845C27.2712 10.2434 28.2185 10.6845 29.2278 10.7584C29.4127 10.7842 29.5739 10.8131 29.7279 10.8483C28.1614 11.8815 25.5845 11.3029 23.673 9.38309C22.2545 8.11387 21.5461 6.23134 21.7759 4.34183ZM29.0253 4.03186C30.4414 5.30039 31.1489 7.18052 30.9202 9.06795C30.4729 8.88554 30.0024 8.76627 29.5222 8.71354C28.3504 8.66878 27.4118 7.72705 27.371 6.55507C27.2975 5.54417 26.8564 4.59516 26.1311 3.8872C25.4249 3.16229 24.4777 2.7212 23.4684 2.64729C23.2752 2.62043 23.1078 2.58943 22.9518 2.55223C23.4912 2.20387 24.1221 2.02402 24.7641 2.0356C26.3887 2.1234 27.9161 2.83745 29.0253 4.02772V4.03186ZM16.5321 6.1862C16.5321 5.61554 16.9948 5.15294 17.5654 5.15294H19.6484C19.7335 7.30783 20.6523 9.34543 22.2109 10.8359C23.7133 12.4102 25.7736 13.3319 27.9486 13.4025C29.3165 13.4376 30.6415 12.9238 31.628 11.9755C33.2905 10.3068 33.461 7.61106 32.31 5.14881H44.4301C45.0007 5.14881 45.4633 5.61141 45.4633 6.18206V15.4814H16.5321V6.1862ZM2.38273 12.6823C2.57191 12.4907 2.83055 12.3837 3.09981 12.3857H14.4656V14.4522H3.09981C2.52916 14.4522 2.06655 13.9896 2.06655 13.419C2.06586 13.1403 2.18027 12.8738 2.38273 12.6823Z" fill="#07AC04"/>
<path d="M14.5323 25.0176H8.33273C6.05013 25.0176 4.19971 26.868 4.19971 29.1506V38.4499C4.19971 39.5912 5.12492 40.5164 6.26622 40.5164H16.5988C17.7401 40.5164 18.6653 39.5912 18.6653 38.4499V29.1506C18.6653 26.868 16.8149 25.0176 14.5323 25.0176ZM8.33273 27.0841H14.5323C15.6736 27.0841 16.5988 28.0093 16.5988 29.1506V34.3169H6.26622V29.1506C6.26622 28.0093 7.19143 27.0841 8.33273 27.0841ZM6.26622 38.4499V36.3834H16.5988V38.4499H6.26622Z" fill="#07AC04"/>
<path d="M49.663 25.0176H43.4635C41.1809 25.0176 39.3304 26.868 39.3304 29.1506V38.4499C39.3304 39.5912 40.2557 40.5164 41.397 40.5164H51.7295C52.8708 40.5164 53.796 39.5912 53.796 38.4499V29.1506C53.796 26.868 51.9456 25.0176 49.663 25.0176ZM43.4635 27.0841H49.663C50.8043 27.0841 51.7295 28.0093 51.7295 29.1506V34.3169H41.397V29.1506C41.397 28.0093 42.3222 27.0841 43.4635 27.0841ZM41.397 38.4499V36.3834H51.7295V38.4499H41.397Z" fill="#07AC04"/>
<path d="M32.0976 34.3169C31.5269 34.3169 31.0643 34.7795 31.0643 35.3502V38.4499C31.0643 39.0206 31.5269 39.4832 32.0976 39.4832C32.6682 39.4832 33.1308 39.0206 33.1308 38.4499V35.3502C33.1308 34.7795 32.6682 34.3169 32.0976 34.3169Z" fill="#07AC04"/>
<path d="M34.1641 2.286H40.3637C40.9343 2.286 41.3969 1.82339 41.3969 1.25274C41.3969 0.682087 40.9343 0.219482 40.3637 0.219482H34.1641C33.5935 0.219482 33.1309 0.682087 33.1309 1.25274C33.1309 1.82339 33.5935 2.286 34.1641 2.286Z" fill="#07AC04"/>
<path d="M38.2972 4.35248H36.2306C35.66 4.35248 35.1974 4.81508 35.1974 5.38573C35.1974 5.95639 35.66 6.41899 36.2306 6.41899H38.2972C38.8678 6.41899 39.3304 5.95639 39.3304 5.38573C39.3304 4.81508 38.8678 4.35248 38.2972 4.35248Z" fill="#07AC04"/>
</svg>
