<svg width="591" height="481" viewBox="0 0 591 481" fill="none" xmlns="http://www.w3.org/2000/svg">
<g clip-path="url(#clip0)">
<path opacity="0.18" d="M243.708 69.636C208.964 98.5697 180.966 135.471 144.011 161.649C109.832 185.769 68.5746 200.228 39.1641 229.942C14.046 255.309 -0.0300389 289.558 -0.00203349 325.239C0.0259719 360.921 14.1558 395.148 39.3137 420.476C74.4899 455.884 126.498 469.23 176.363 471.853C226.228 474.475 276.225 467.952 326.09 470.624C373.28 473.164 420.204 483.904 467.327 480.352C514.45 476.799 564.348 454.605 582.958 411.23C603.562 363.223 579.95 309.206 563.667 259.589C551.375 222.072 543.262 183.315 539.474 144.02C533.824 85.2399 523.423 3.618 449.381 0.364413C375.839 -2.97218 300.086 22.6083 243.708 69.636Z" fill="#68E1FD"/>
<path d="M441.971 396.34C445.028 397.901 445.477 402.383 443.748 405.321C442.02 408.259 438.764 410.019 435.723 411.463C428.405 414.855 420.723 417.4 412.826 419.049C409.254 419.813 404.518 421.838 405.415 425.39C406.063 428.229 409.735 428.909 412.643 428.959C455.845 429.623 498.565 418.036 541.75 418.999C544.608 418.999 547.782 419.315 549.742 421.406C552.218 424.046 551.553 428.295 550.158 431.632C542.448 450.157 520.249 457.378 500.409 460.582C455.23 467.903 409.137 465.811 363.377 465.296C272.238 464.3 180.849 469.662 90.0425 461.727C88.1194 461.731 86.2328 461.203 84.5924 460.2C82.9739 458.767 81.9784 456.761 81.8175 454.606C80.2722 443.567 89.112 433.192 99.5136 429.158C109.915 425.125 121.463 425.838 132.596 426.652C179.769 429.972 227.142 432.794 274.298 429.241C305.182 427.18 335.731 421.611 365.354 412.641C378.962 408.408 392.737 400.075 406.645 397.535C410.932 396.755 415.285 397.286 419.605 397.071C425.886 396.755 436.122 393.369 441.971 396.34Z" fill="url(#paint0_linear)"/>
<path d="M0 317.026C0.166161 322.587 2.90781 327.7 5.64946 332.547C18.1281 354.542 32.0856 376.188 51.3602 392.522C79.7405 416.509 116.911 426.834 152.801 436.529C149.578 434.968 145.723 418.451 144.294 414.816C141.519 407.695 138.927 400.507 136.252 393.369C132.048 382.064 123.175 372.968 114.651 364.651C95.1163 345.886 71.4208 331.996 45.4948 324.114C30.7394 319.624 15.4233 317.238 0 317.026Z" fill="#68E1FD"/>
<path d="M0 317.026C0.166161 322.587 2.90781 327.7 5.64946 332.547C18.1281 354.542 32.0856 376.188 51.3602 392.522C79.7405 416.509 116.911 426.834 152.801 436.529C149.578 434.968 145.723 418.451 144.294 414.816C141.519 407.695 138.927 400.507 136.252 393.369C132.048 382.064 123.175 372.968 114.651 364.651C95.1163 345.886 71.4208 331.996 45.4948 324.114C30.7394 319.624 15.4233 317.238 0 317.026Z" fill="url(#paint1_linear)"/>
<path d="M140.422 329.31C137.498 308.859 134.49 288.125 126.249 269.168C118.007 250.211 103.734 233.03 84.3431 225.759L82.6815 313.656C82.3492 330.571 82.0667 347.819 86.9186 364.037C95.4593 392.456 125.036 425.805 153.549 435.201C157.77 421.539 150.674 400.872 148.564 386.696L140.422 329.31Z" fill="#006341"/>
<path d="M493.929 302.916C493.779 308.46 491.021 313.59 488.28 318.42C475.834 340.415 461.86 362.078 442.552 378.396C414.172 402.383 377.018 412.724 341.194 422.402C344.401 420.842 348.256 404.325 349.685 400.689C352.46 393.568 355.052 386.397 357.727 379.242C361.931 367.938 370.804 358.858 379.428 350.541C398.924 331.777 422.587 317.886 448.484 310.004C463.219 305.5 478.521 303.113 493.929 302.916Z" fill="#68E1FD"/>
<path d="M493.929 302.916C493.779 308.46 491.021 313.59 488.28 318.42C475.834 340.415 461.86 362.078 442.552 378.396C414.172 402.383 377.018 412.724 341.194 422.402C344.401 420.842 348.256 404.325 349.685 400.689C352.46 393.568 355.052 386.397 357.727 379.242C361.931 367.938 370.804 358.858 379.428 350.541C398.924 331.777 422.587 317.886 448.484 310.004C463.219 305.5 478.521 303.113 493.929 302.916Z" fill="#0A3E2C"/>
<path d="M353.507 315.216C356.431 294.765 359.439 274.015 367.68 255.075C375.922 236.134 390.195 218.854 409.586 211.649C410.151 240.954 410.705 270.247 411.248 299.529C411.563 316.461 411.862 333.709 406.994 349.927C398.47 378.346 368.877 411.695 340.38 421.074C336.143 407.429 343.238 386.745 345.265 372.569L353.507 315.216Z" fill="#006341"/>
<path d="M323.98 28.9503L170.165 44.0729C154.28 45.6333 141.386 59.0128 141.386 73.8698V418.402C141.386 433.342 154.28 444.098 170.165 442.538L323.98 427.415C339.881 425.855 352.776 412.475 352.776 397.635V53.1032C352.776 38.1965 339.881 27.3899 323.98 28.9503ZM338.087 398.365C338.087 407.545 330.144 415.762 320.358 416.725L170.896 431.416C161.093 432.379 153.15 425.722 153.15 416.476V72.8572C153.15 63.6774 161.093 55.4604 170.896 54.4976L193.295 52.2898V54.3316C193.295 60.208 198.379 64.4742 204.643 63.86L287.308 55.8422C290.305 55.5889 293.109 54.2582 295.199 52.097C297.289 49.9358 298.523 47.0907 298.674 44.0895V42.1307L320.275 40.0059C330.061 39.0431 338.004 45.6997 338.004 54.9458L338.087 398.365Z" fill="#006341"/>
<path d="M331.225 35.3081L177.393 50.4306C161.508 51.991 148.614 65.3706 148.614 80.3105V424.759C148.614 439.699 161.508 450.456 177.393 448.896L331.225 433.79C347.109 432.229 360.004 418.85 360.004 403.993V59.461C360.004 44.5708 347.126 33.8307 331.225 35.3081ZM345.332 404.723C345.332 413.903 337.389 422.12 327.586 423.083L178.041 437.774C168.238 438.737 160.295 432.08 160.295 422.834V79.2149C160.295 70.0352 168.238 61.8016 178.041 60.8388L200.523 58.7306V60.7558C200.523 66.6322 205.607 70.8984 211.871 70.2842L294.553 62.1668C297.542 61.9033 300.335 60.5712 302.42 58.4152C304.505 56.2592 305.741 53.4241 305.902 50.4306V48.422L327.586 46.2806C337.389 45.3178 345.332 51.991 345.332 61.2206V404.723Z" fill="white"/>
<path d="M345.332 61.1708V404.79C345.332 413.969 337.389 422.186 327.586 423.149L178.041 437.84C168.238 438.803 160.295 432.146 160.295 422.9V79.2813C160.295 70.1016 168.238 61.868 178.041 60.9052L200.523 58.7306V60.7558C200.523 66.6322 205.607 70.8984 211.871 70.2842L294.553 62.1668C297.542 61.9033 300.335 60.5712 302.42 58.4152C304.505 56.2592 305.741 53.4241 305.902 50.4306V48.422L327.586 46.2806C337.389 45.3178 345.332 51.991 345.332 61.1708Z" stroke="url(#paint2_linear)" stroke-width="0.63" stroke-miterlimit="10"/>
<path d="M345.332 61.1708V404.79C345.332 413.969 337.389 422.186 327.586 423.149L178.041 437.84C168.238 438.803 160.295 432.146 160.295 422.9V79.2813C160.295 70.1016 168.238 61.868 178.041 60.9052L200.523 58.7306V60.7558C200.523 66.6322 205.607 70.8984 211.871 70.2842L294.553 62.1668C297.542 61.9033 300.335 60.5712 302.42 58.4152C304.505 56.2592 305.741 53.4241 305.902 50.4306V48.422L327.586 46.2806C337.389 45.3178 345.332 51.991 345.332 61.1708Z" fill="#07AC04"/>
<path d="M294.287 387.21L219.182 394.398C218.124 394.485 217.059 394.352 216.054 394.007C215.05 393.662 214.128 393.113 213.347 392.393C212.567 391.674 211.944 390.801 211.518 389.829C211.092 388.856 210.873 387.807 210.874 386.746V367.971C210.874 366.039 211.593 364.177 212.893 362.747C214.192 361.316 215.978 360.421 217.903 360.235L292.974 353.048C294.041 352.946 295.117 353.068 296.133 353.406C297.149 353.745 298.084 354.292 298.875 355.013C299.667 355.734 300.3 356.612 300.731 357.592C301.163 358.571 301.385 359.63 301.382 360.7V379.475C301.377 381.416 300.647 383.285 299.335 384.716C298.022 386.147 296.222 387.037 294.287 387.21Z" fill="url(#paint3_linear)"/>
<path d="M264.478 57.7014L236.064 60.4902V58.133L264.478 55.3442V57.7014Z" fill="url(#paint4_linear)"/>
<path d="M273.392 57.8513C274.905 56.9675 275.493 55.1604 274.706 53.8149C273.919 52.4694 272.054 52.0951 270.541 52.9788C269.028 53.8625 268.439 55.6697 269.226 57.0152C270.014 58.3607 271.879 58.735 273.392 57.8513Z" fill="url(#paint5_linear)"/>
<path d="M197.582 321.192L305.935 310.817C309.588 310.488 312.984 308.798 315.447 306.082C317.909 303.366 319.259 299.824 319.228 296.16V174.034C319.21 171.814 318.734 169.621 317.83 167.593C316.925 165.566 315.611 163.746 313.97 162.249C312.33 160.751 310.397 159.608 308.294 158.891C306.191 158.174 303.962 157.898 301.748 158.081L193.394 168.456C189.742 168.781 186.347 170.469 183.884 173.182C181.421 175.895 180.07 179.435 180.101 183.097V305.24C180.119 307.46 180.595 309.652 181.5 311.68C182.404 313.708 183.718 315.527 185.359 317.025C187 318.522 188.932 319.665 191.035 320.382C193.138 321.099 195.367 321.375 197.582 321.192Z" fill="#C9D9DF"/>
<path d="M203.979 322.919L312.332 312.544C315.984 312.218 319.379 310.531 321.843 307.818C324.306 305.105 325.656 301.565 325.625 297.903V175.76C325.607 173.54 325.131 171.348 324.227 169.32C323.322 167.292 322.008 165.472 320.368 163.975C318.727 162.478 316.795 161.335 314.691 160.618C312.588 159.901 310.36 159.625 308.145 159.808L199.792 170.183C196.138 170.512 192.743 172.202 190.28 174.918C187.817 177.634 186.467 181.176 186.499 184.84V306.966C186.516 309.186 186.992 311.379 187.897 313.407C188.802 315.434 190.115 317.254 191.756 318.751C193.397 320.249 195.329 321.392 197.432 322.109C199.535 322.826 201.764 323.101 203.979 322.919Z" fill="url(#paint6_linear)"/>
<path d="M208.149 192.559L247.031 189.439V228.432L208.149 231.553V192.559ZM240.584 222.439V196.51L214.596 198.602V224.68L240.584 222.439Z" fill="#473F47"/>
<path d="M273.251 187.297L312.099 184.176V223.203L273.251 226.39V187.297ZM305.669 217.277V191.198L279.665 193.29V219.368L305.669 217.277Z" fill="#473F47"/>
<path d="M247.031 293.703L208.149 296.824V257.93L247.031 254.809V293.703ZM214.563 289.835L240.617 287.81V261.748L214.563 263.84V289.835Z" fill="#473F47"/>
<path d="M260.075 194.85L266.555 194.336V207.3L260.124 207.815V214.289L253.727 214.803V188.907L260.075 188.393V194.85Z" fill="#473F47"/>
<path d="M312.116 242.791L299.255 243.82V237.346L286.261 238.375V231.984L312.116 229.909V242.791Z" fill="#473F47"/>
<path d="M305.686 269.55V275.957L312.1 275.443V288.407L299.289 289.437V270.114L305.686 269.55Z" fill="#473F47"/>
<path d="M221.043 237.213V243.637L227.491 243.123V249.63L208.166 251.19V238.309L221.043 237.213Z" fill="#473F47"/>
<path d="M260.125 234.026L279.532 232.466V245.43L266.605 246.476V239.836L260.125 240.351V233.877V234.026Z" fill="#473F47"/>
<path d="M273.251 252.518L279.682 252.004V245.563L292.576 244.517V257.399L273.251 258.943V252.518Z" fill="#473F47"/>
<path d="M266.605 246.476V259.441L253.677 260.486V247.522L266.671 246.476H266.605Z" fill="#473F47"/>
<path d="M266.588 279.261L270.078 278.912L278.602 278.232H279.565V291.13L266.671 292.176V280.224C266.671 279.908 266.671 279.609 266.671 279.294L266.588 279.261Z" fill="#473F47"/>
<path d="M253.677 247.522L240.734 248.551V242.11L247.131 241.596V235.072L253.661 234.541V247.572L253.677 247.522Z" fill="#473F47"/>
<path d="M312.116 262.346L305.752 262.86V256.403L299.305 256.917V250.493L312.116 249.464V262.346Z" fill="#473F47"/>
<path d="M260.174 279.726V273.086L253.727 273.6V267.226L266.588 266.197V279.228C265.591 279.228 264.611 279.228 263.63 279.36C262.65 279.493 261.304 279.593 260.141 279.709L260.174 279.726Z" fill="#473F47"/>
<path d="M260.191 227.535V214.504L266.555 213.99V227.004L260.158 227.519L260.191 227.535Z" fill="#473F47"/>
<path d="M260.158 279.709V291.578V292.64L253.76 293.155V280.257L260.224 279.726L260.158 279.709Z" fill="#473F47"/>
<path d="M240.518 235.653V242.011L227.707 243.04V236.682L240.518 235.653Z" fill="#473F47"/>
<path d="M286.261 270.944V264.57L299.089 263.541V269.865L286.261 270.944Z" fill="#473F47"/>
<path d="M286.261 290.532V277.684L292.576 277.169V290.018L286.261 290.532Z" fill="#473F47"/>
<path d="M253.661 234.541V228.05L260.191 227.519C260.191 229.693 260.191 231.851 260.191 234.026L253.677 234.557L253.661 234.541Z" fill="#473F47"/>
<path d="M273.234 271.99V265.649L279.549 265.151V271.475L273.234 271.99Z" fill="#473F47"/>
<path d="M266.721 265.981V259.59L273.052 259.075V265.417L266.721 265.981Z" fill="#473F47"/>
<path d="M286.062 277.501L279.765 278.016V271.658L286.062 271.143V277.501Z" fill="#473F47"/>
<path d="M234.021 203.549L221.176 204.578V217.426L234.021 216.397V203.549Z" fill="#473F47"/>
<path d="M299.089 211.201V198.32L286.295 199.349V212.23L299.089 211.201Z" fill="#473F47"/>
<path d="M221.143 282.714L233.987 281.684V268.819L221.143 269.849V282.714Z" fill="#473F47"/>
<path d="M234.021 203.549V216.43L221.176 217.459V204.611L234.021 203.549Z" fill="#473F47"/>
<path d="M299.089 211.201L286.295 212.23V199.349L299.089 198.32V211.201Z" fill="#473F47"/>
<path d="M221.143 282.714V269.849L233.987 268.819V281.684L221.143 282.714Z" fill="#473F47"/>
<path d="M298.042 384.72L222.971 391.891C221.905 391.996 220.83 391.876 219.814 391.54C218.797 391.203 217.863 390.657 217.071 389.938C216.278 389.218 215.646 388.341 215.214 387.362C214.782 386.383 214.56 385.325 214.563 384.256V365.481C214.563 363.549 215.282 361.687 216.582 360.257C217.881 358.826 219.667 357.931 221.592 357.745L296.663 350.558C297.73 350.456 298.806 350.578 299.822 350.916C300.838 351.255 301.772 351.802 302.564 352.523C303.356 353.244 303.988 354.122 304.42 355.102C304.852 356.081 305.074 357.14 305.071 358.21V376.985C305.072 378.916 304.352 380.779 303.053 382.209C301.753 383.639 299.967 384.535 298.042 384.72Z" fill="white"/>
<path d="M236.862 376.603L239.952 376.304C239.958 376.462 239.998 376.616 240.07 376.757C240.142 376.897 240.243 377.021 240.368 377.118C240.705 377.327 241.105 377.41 241.498 377.35C241.89 377.32 242.268 377.188 242.594 376.968C242.741 376.878 242.861 376.75 242.943 376.599C243.025 376.447 243.065 376.277 243.06 376.105C243.07 376.022 243.07 375.939 243.06 375.856C242.965 375.734 242.846 375.632 242.711 375.557C242.438 375.398 242.14 375.285 241.83 375.225L240.351 374.893C239.772 374.798 239.212 374.613 238.69 374.345C238.284 374.148 237.935 373.851 237.676 373.482C237.298 372.942 237.095 372.299 237.095 371.64C237.086 371.11 237.193 370.584 237.408 370.1C237.623 369.615 237.942 369.183 238.341 368.834C239.219 368.061 240.329 367.6 241.498 367.523C242.594 367.355 243.713 367.617 244.622 368.253C245.024 368.561 245.345 368.962 245.556 369.422C245.768 369.882 245.863 370.387 245.835 370.893L242.777 371.175C242.777 370.428 242.345 370.096 241.465 370.179C241.109 370.187 240.765 370.309 240.484 370.527C240.375 370.615 240.286 370.726 240.226 370.853C240.166 370.979 240.135 371.118 240.135 371.258C240.135 371.689 240.517 371.988 241.298 372.138L242.744 372.453C245.07 372.918 246.233 374.113 246.233 375.773C246.248 376.573 245.983 377.354 245.486 377.981C245.024 378.577 244.418 379.045 243.724 379.342C243.04 379.645 242.31 379.83 241.564 379.89C240.406 380.065 239.225 379.811 238.241 379.176C237.814 378.896 237.465 378.514 237.224 378.065C236.983 377.615 236.859 377.113 236.862 376.603Z" fill="#006341"/>
<path d="M256.785 374.13L259.294 375.574C258.712 376.487 257.927 377.254 257.001 377.815C256.076 378.392 255.029 378.744 253.943 378.844C253.132 378.944 252.308 378.872 251.526 378.632C250.744 378.391 250.022 377.988 249.407 377.45C248.801 376.93 248.317 376.282 247.993 375.553C247.668 374.823 247.51 374.031 247.529 373.233C247.531 371.524 248.206 369.884 249.407 368.668C250.579 367.375 252.202 366.579 253.943 366.444C254.989 366.327 256.048 366.481 257.017 366.892C257.932 367.284 258.724 367.914 259.31 368.718L256.768 370.644C256.475 370.202 256.059 369.856 255.572 369.648C255.052 369.41 254.478 369.319 253.91 369.382C253.001 369.458 252.157 369.88 251.551 370.561C250.928 371.2 250.582 372.059 250.587 372.951C250.571 373.368 250.649 373.783 250.816 374.165C250.983 374.547 251.234 374.887 251.551 375.159C251.868 375.443 252.243 375.656 252.65 375.782C253.058 375.908 253.487 375.944 253.91 375.889C254.501 375.846 255.071 375.658 255.572 375.341C256.063 375.035 256.478 374.621 256.785 374.13Z" fill="#006341"/>
<path d="M268.898 377.234L267.834 374.561L263.88 374.926L262.816 377.798L259.493 378.097L264.145 365.581L267.469 365.282L272.088 376.902L268.898 377.234ZM265.824 368.237L264.694 372.32L267.053 372.104L265.824 368.237Z" fill="#006341"/>
<path d="M279.864 364.17L282.905 363.887V375.989L280.247 376.221L276.392 369.98V376.62L273.334 376.902V364.8L276.093 364.551L279.864 370.71V364.17Z" fill="#006341"/>
<path d="M398.021 195.697L316.519 158.015L183.092 174.133L186.482 316.362L197.582 321.192L319.211 311.448L325.608 297.903L396.808 201.274L398.021 195.697Z" fill="url(#paint7_linear)"/>
<path d="M394.847 204.412V192.493C394.846 192.098 394.95 191.71 395.149 191.369C395.347 191.028 395.633 190.745 395.977 190.551L402.624 186.849C403.322 186.451 406.08 188.061 406.08 188.858L404.202 209.309L399.533 212.911L394.864 210.172L394.847 204.412Z" fill="white"/>
<path d="M394.847 204.412V192.493C394.846 192.098 394.95 191.71 395.149 191.369C395.347 191.028 395.633 190.745 395.977 190.551L402.624 186.849C403.322 186.451 406.08 188.061 406.08 188.858L404.202 209.309L399.533 212.911L394.864 210.172L394.847 204.412Z" fill="url(#paint8_linear)"/>
<path d="M396.808 205.889V193.954C396.806 193.561 396.911 193.175 397.109 192.836C397.308 192.498 397.594 192.219 397.938 192.028L404.584 188.31C404.745 188.221 404.926 188.175 405.11 188.177C405.293 188.179 405.474 188.228 405.633 188.32C405.791 188.412 405.924 188.543 406.017 188.701C406.11 188.86 406.16 189.039 406.163 189.223V210.803L401.494 214.388L396.825 211.666L396.808 205.889Z" fill="white"/>
<path d="M398.021 205.391V195.697L405.581 190.933V206.968L403.92 212.363L400.397 213.525C400.397 213.525 398.52 212.728 398.52 212.479" fill="#68E1FD"/>
<path d="M503.699 293.686L502.702 295.031L506.291 243.969L507.006 233.711L507.355 228.731L509.232 232.764C512.755 240.185 520.066 255.706 522.11 259.955C524.453 264.836 507.97 287.81 503.699 293.686Z" fill="white"/>
<path opacity="0.1" d="M503.699 293.686C503.285 292.707 503.13 291.638 503.251 290.582C503.689 288.25 504.693 286.062 506.175 284.208C510.13 278.398 515.081 272.239 517.358 265.5C520.349 256.585 510.545 251.058 506.291 243.92C505.203 242.249 504.557 240.33 504.414 238.342C504.343 237.394 504.55 236.447 505.011 235.615C505.471 234.783 506.164 234.104 507.006 233.661C507.697 233.233 508.447 232.908 509.232 232.698C512.755 240.118 520.066 255.639 522.11 259.889C524.453 264.836 507.97 287.81 503.699 293.686Z" fill="#020202"/>
<path d="M479.357 434.172C477.777 434.894 476.472 436.104 475.635 437.624C475.461 437.962 475.408 438.348 475.485 438.72C475.607 438.995 475.787 439.24 476.014 439.438C476.241 439.636 476.509 439.782 476.798 439.865C480.985 441.525 485.721 441.21 490.091 440.413C494.477 439.34 498.956 438.689 503.467 438.471C503.848 438.532 504.239 438.511 504.612 438.407C504.985 438.304 505.331 438.122 505.627 437.873C505.905 437.457 506.039 436.962 506.009 436.462C506.19 432.545 505.51 428.635 504.015 425.008C504.115 425.241 492.168 425.722 491.137 426.419C489.243 427.731 487.665 429.407 485.638 430.619C483.61 431.831 481.467 432.976 479.357 434.172Z" fill="#282328"/>
<path d="M495.242 348.732C495.161 364.011 496.361 379.27 498.831 394.348C499.229 396.971 499.662 399.577 500.193 402.183C504.115 421.439 504.43 426.336 504.43 426.336H488.678C488.678 426.336 477.047 371.806 472.727 359.389C469.459 349.978 466.91 340.334 465.1 330.538C464.395 325.896 464.969 321.15 466.762 316.81C467.37 315.099 468.238 313.492 469.337 312.046C471.477 309.684 474.156 307.873 477.147 306.767C483.508 303.893 490.389 302.346 497.369 302.219C498.166 302.151 498.964 302.325 499.662 302.717C500.108 303.083 500.461 303.549 500.692 304.078C502.736 308.228 502.353 313.108 501.722 317.69C501.447 320.234 500.89 322.739 500.06 325.16C499.13 327.633 497.668 329.874 496.82 332.381C496.099 334.794 495.675 337.285 495.557 339.801C495.458 342.772 495.308 345.744 495.242 348.732Z" fill="#282328"/>
<path d="M455.762 336.68C456.094 338.665 456.222 340.678 456.144 342.689C456.078 346.295 456.194 349.902 456.493 353.496C457.374 370.61 459.966 387.659 459.982 404.79C459.982 419.398 459.501 434.67 459.501 434.67C459.501 434.67 472.245 438.587 475.186 435.649L480.088 365.099C480.836 359.771 481.982 354.359 482.364 348.997C482.697 344.333 482.796 340.382 484.541 335.9C486.502 330.92 489.293 326.222 490.805 321.043C491.784 317.727 492.205 314.271 492.051 310.817C492.1 309.758 491.809 308.712 491.221 307.829C490.64 307.229 489.929 306.769 489.144 306.485C480.321 302.567 471.165 298.583 461.511 298.666C460.732 298.602 459.952 298.769 459.268 299.148C458.617 299.685 458.147 300.409 457.922 301.223C454.371 310.585 453.278 320.7 454.748 330.604C455.131 332.746 455.463 334.705 455.762 336.68Z" fill="#473F47"/>
<path d="M408.174 216.43C407.791 214.189 407.841 211.848 407.642 209.574C407.633 208.682 407.392 207.807 406.944 207.034C406.705 206.657 406.343 206.374 405.92 206.231C405.496 206.089 405.036 206.097 404.618 206.254C403.588 206.769 403.554 208.18 403.588 209.325C403.621 210.471 403.322 211.931 402.192 212.147C401.766 212.189 401.338 212.102 400.962 211.898C400.399 211.597 399.913 211.168 399.544 210.647C399.175 210.125 398.932 209.525 398.835 208.894C398.736 208.147 398.835 207.366 398.702 206.619C398.27 204.461 395.479 204.827 394.183 205.956C393.419 206.692 392.799 207.565 392.355 208.528C391.416 210.16 390.727 211.922 390.311 213.757C388.932 221.244 397.971 222.854 401.793 227.635C402.342 228.377 402.954 229.071 403.621 229.71C404.269 230.266 405.053 230.641 405.893 230.799C406.733 230.956 407.6 230.89 408.406 230.606C409.208 230.311 409.917 229.808 410.46 229.149C411.003 228.489 411.361 227.698 411.497 226.855C411.945 224.066 409.918 221.559 408.921 218.903C408.594 218.104 408.344 217.276 408.174 216.43Z" fill="#FFBBAB"/>
<path d="M473.159 196.975C473.314 197.186 473.432 197.422 473.508 197.672C473.623 198.18 473.623 198.708 473.508 199.216C472.834 202.217 472.373 205.263 472.129 208.329C472 209.188 472.164 210.065 472.594 210.819C473.28 211.549 474.219 211.988 475.219 212.048C476.675 212.28 478.149 212.38 479.623 212.346C480.204 212.346 480.919 212.346 481.284 212.828C481.408 213.046 481.476 213.291 481.484 213.542C481.552 214.685 481.329 215.828 480.836 216.862C480.533 217.361 480.383 217.938 480.404 218.522C480.52 219.584 482.065 219.484 482.863 219.534C485.887 219.684 488.928 219.7 491.952 219.534C492.474 219.557 492.994 219.448 493.464 219.219C494.278 218.737 494.461 217.658 494.693 216.745C495.724 212.512 498.997 209.226 500.758 205.242C501.665 203.119 502.142 200.838 502.162 198.53C502.182 196.223 501.745 193.934 500.875 191.796C500.038 189.759 498.845 187.887 497.352 186.268C495.989 184.757 493.364 184.442 491.47 184.044C488.147 183.346 484.458 183.147 481.5 184.923C478.177 186.915 476.648 190.999 473.308 192.908C472.727 193.24 472.012 193.572 471.813 194.219C471.761 194.548 471.79 194.885 471.898 195.2C472.005 195.515 472.187 195.799 472.428 196.029C472.644 196.361 472.926 196.643 473.159 196.975Z" fill="#FFBBAB"/>
<path d="M482.414 183.761C482.488 184.276 482.645 184.775 482.879 185.239C483.943 187.447 485.338 186.899 487.249 187.181C489.576 187.596 491.088 190.202 491.57 192.327C491.985 194.903 491.9 197.535 491.32 200.079C491.832 199.658 492.463 199.407 493.125 199.363C493.786 199.318 494.445 199.481 495.009 199.83C495.558 200.212 495.985 200.744 496.238 201.362C496.492 201.981 496.561 202.659 496.438 203.316C496.301 203.976 495.982 204.585 495.519 205.074C495.055 205.564 494.464 205.915 493.813 206.088C493.165 206.254 492.4 206.288 492.002 206.819C491.785 207.202 491.692 207.642 491.736 208.08C491.736 210.902 491.852 213.973 493.647 216.164C496.139 215.915 498.033 213.924 499.894 212.264C502.536 209.906 505.56 207.981 508.103 205.507C510.798 203.145 512.471 199.831 512.772 196.261C512.855 190.534 507.787 186.119 505.926 180.724C505.593 179.509 505.154 178.326 504.613 177.188C504.115 176.407 503.459 175.738 502.686 175.225C501.914 174.713 501.043 174.367 500.129 174.211C499.215 174.054 498.279 174.091 497.38 174.318C496.481 174.544 495.639 174.957 494.909 175.528C493.57 174.647 492.002 174.178 490.398 174.178C488.795 174.178 487.226 174.647 485.887 175.528C484.66 176.496 483.698 177.759 483.091 179.199C482.484 180.638 482.251 182.208 482.414 183.761Z" fill="black"/>
<path d="M506.74 246.742C506.053 252.091 505.831 257.489 506.075 262.877C506.225 268.139 506.474 273.368 506.69 278.63C505.677 283.162 504.547 287.694 503.367 292.176C502.618 295.837 501.383 299.382 499.695 302.717C498.843 304.321 497.719 305.764 496.372 306.983C495.045 308.147 493.535 309.084 491.902 309.755C488.066 311.174 483.966 311.74 479.888 311.415C477.013 311.302 474.16 310.867 471.381 310.12C467.81 309.23 464.495 307.525 461.694 305.14C460.287 303.884 459.058 302.443 458.038 300.857C455.597 296.949 454.122 292.517 453.735 287.926C452.9 280.391 453.874 272.766 456.576 265.682C456.726 265.267 456.892 264.869 457.058 264.454C458.204 261.532 459.351 258.611 460.531 255.689C460.531 255.689 460.531 255.606 460.531 255.573C460.713 255.108 460.896 254.676 461.062 254.228L461.162 253.979L460.514 254.245L459.833 254.494C459.616 254.581 459.394 254.653 459.168 254.71C458.686 254.892 458.171 255.025 457.689 255.158L456.028 255.573C455.081 255.772 454.117 255.955 453.153 256.071L451.84 256.22C439.761 257.283 426.584 252.402 416.482 247.007C413.184 245.331 410.168 243.153 407.542 240.55C406.995 239.969 406.479 239.359 405.997 238.724C404.787 237.133 403.896 235.323 403.371 233.395C403.006 232.228 403.006 230.977 403.371 229.81C403.395 229.763 403.423 229.719 403.455 229.677C403.819 228.878 404.325 228.153 404.95 227.535C406.485 225.855 408.11 224.259 409.819 222.755L410.35 222.29C410.808 221.888 411.346 221.588 411.929 221.41C412.502 221.282 413.097 221.281 413.671 221.407C414.246 221.533 414.785 221.783 415.252 222.14C416.101 222.733 416.891 223.406 417.611 224.149C422.224 228.543 427.696 231.937 433.683 234.12C439.67 236.302 446.044 237.225 452.405 236.831C455.898 236.685 459.329 235.861 462.508 234.408C465.297 232.898 467.887 231.046 470.218 228.897C472.324 227.173 474.333 225.333 476.233 223.385C476.731 222.854 477.246 222.306 477.695 221.725C478.144 221.144 478.426 220.829 478.775 220.381L479.207 219.816C479.586 219.241 480.085 218.754 480.669 218.389C481.507 218.005 482.423 217.823 483.345 217.858C486.95 217.708 490.872 217.028 494.427 217.111H494.81C495.155 217.124 495.5 217.163 495.84 217.227C497.07 217.42 498.222 217.955 499.163 218.771C500.32 219.882 501.376 221.093 502.32 222.389C504.532 224.811 506.268 227.627 507.438 230.689C509.166 235.769 507.538 241.33 506.74 246.742Z" fill="white"/>
<path d="M510.894 246.194C510.881 251.951 510.443 257.699 509.581 263.391C508.834 268.521 507.92 273.584 506.69 278.63C506.474 273.368 506.225 268.139 506.075 262.877C505.831 257.489 506.053 252.091 506.74 246.742C507.538 241.347 509.166 235.769 507.488 230.59C506.318 227.527 504.582 224.711 502.37 222.29C501.426 220.993 500.37 219.782 499.213 218.671C502.536 221.178 505.161 225.842 507.355 228.631C511.093 233.528 510.861 240.351 510.894 246.194Z" fill="white"/>
<path opacity="0.1" d="M510.894 246.194C510.881 251.951 510.443 257.699 509.581 263.391C508.834 268.521 507.92 273.584 506.69 278.63C506.474 273.368 506.225 268.139 506.075 262.877C505.831 257.489 506.053 252.091 506.74 246.742C507.538 241.347 509.166 235.769 507.488 230.59C506.318 227.527 504.582 224.711 502.37 222.29C501.426 220.993 500.37 219.782 499.213 218.671C502.536 221.178 505.161 225.842 507.355 228.631C511.093 233.528 510.861 240.351 510.894 246.194Z" fill="#020202"/>
<path opacity="0.1" d="M506.74 246.742C506.053 252.091 505.831 257.489 506.075 262.877C506.225 268.139 506.474 273.368 506.69 278.63C505.677 283.162 504.547 287.694 503.367 292.176C502.618 295.837 501.383 299.382 499.695 302.717C498.843 304.321 497.719 305.764 496.372 306.983C495.045 308.147 493.535 309.084 491.902 309.755C488.066 311.174 483.966 311.74 479.888 311.415C477.013 311.302 474.16 310.867 471.381 310.12C467.81 309.23 464.495 307.525 461.694 305.14C460.287 303.884 459.058 302.443 458.038 300.857C455.597 296.949 454.122 292.517 453.735 287.926C452.9 280.391 453.874 272.766 456.576 265.682C456.726 265.267 456.892 264.869 457.058 264.454C458.37 261.595 459.529 258.67 460.531 255.689C460.531 255.689 460.531 255.606 460.531 255.573C460.664 255.075 460.78 254.61 460.896 254.129C460.774 254.183 460.646 254.222 460.514 254.245L459.833 254.494C459.616 254.581 459.394 254.653 459.168 254.71C458.686 254.892 458.171 255.025 457.689 255.158L456.028 255.573C455.081 255.772 454.117 255.955 453.153 256.071L451.84 256.22C439.594 257.465 427.033 252.684 416.482 247.007C413.184 245.331 410.168 243.153 407.542 240.55C406.995 239.969 406.479 239.359 405.997 238.724C404.787 237.133 403.896 235.323 403.371 233.395C403.006 232.228 403.006 230.977 403.371 229.81C403.395 229.763 403.423 229.719 403.455 229.677C403.819 228.878 404.325 228.153 404.95 227.535C406.485 225.855 408.11 224.259 409.819 222.755L410.35 222.29C410.808 221.888 411.346 221.588 411.929 221.41C412.502 221.282 413.097 221.281 413.671 221.407C414.246 221.533 414.785 221.783 415.252 222.14C416.101 222.733 416.891 223.406 417.611 224.149C422.224 228.543 427.696 231.937 433.683 234.12C439.67 236.302 446.044 237.225 452.405 236.831C455.898 236.685 459.329 235.861 462.508 234.408C465.297 232.898 467.887 231.046 470.218 228.897C472.324 227.173 474.333 225.333 476.233 223.385C476.731 222.854 477.246 222.306 477.695 221.725C478.144 221.144 478.426 220.829 478.775 220.381L479.207 219.816C479.586 219.241 480.085 218.754 480.669 218.389C481.507 218.005 482.423 217.823 483.345 217.858C486.95 217.708 490.872 217.028 494.427 217.111H494.81C495.155 217.124 495.5 217.163 495.84 217.227C497.046 217.495 498.18 218.021 499.163 218.771C500.32 219.882 501.376 221.093 502.32 222.389C504.532 224.811 506.268 227.627 507.438 230.689C509.166 235.769 507.538 241.33 506.74 246.742Z" fill="#020202"/>
<path d="M449.979 443.451C448.397 444.168 447.09 445.38 446.257 446.904C446.084 447.241 446.031 447.628 446.108 447.999C446.228 448.274 446.408 448.518 446.635 448.714C446.862 448.909 447.131 449.051 447.421 449.128C451.608 450.788 456.343 450.489 460.797 449.692C465.188 448.618 469.673 447.968 474.189 447.75C474.568 447.81 474.956 447.788 475.326 447.685C475.696 447.582 476.039 447.4 476.333 447.153C476.611 446.737 476.745 446.241 476.715 445.742C476.896 441.824 476.216 437.914 474.721 434.288C474.821 434.52 462.874 434.985 461.86 435.699C459.949 437.01 458.371 438.687 456.343 439.899C454.316 441.11 452.09 442.189 449.979 443.451Z" fill="#282328"/>
<path d="M429.974 241.911C422.015 239.072 413.906 236.267 407.559 230.557C406.826 230.033 406.321 229.249 406.146 228.365C406.203 227.819 406.381 227.292 406.669 226.824C406.957 226.355 407.346 225.958 407.808 225.66C408.944 224.515 410.236 223.537 411.646 222.755C412.352 222.363 413.132 222.123 413.937 222.052C414.741 221.98 415.551 222.078 416.315 222.34C417.38 222.876 418.337 223.601 419.14 224.481C424.985 229.735 432.175 233.264 439.91 234.673C447.437 236.333 455.729 236.433 462.957 233.511C467.144 231.851 476.25 220.846 480.32 222.456C484.391 224.066 482.597 232.183 480.62 234.707C476.349 240.135 465.532 242.708 459.019 243.936C449.329 245.853 439.303 245.154 429.974 241.911Z" fill="white"/>
<path d="M493.347 223.966C494.264 223.536 495.077 222.912 495.731 222.139C496.385 221.365 496.864 220.46 497.136 219.484C494.95 219.035 492.709 218.923 490.489 219.152L484.126 219.468L479.938 219.684C477.329 219.833 477.28 220.978 478.277 222.771C478.742 223.618 479.938 224.298 480.437 225.211C480.935 226.124 481.018 227.104 481.616 227.801C483.278 229.793 483.743 228.664 485.887 227.369C488.03 226.075 490.905 225.294 493.347 223.966Z" fill="white"/>
<path d="M390.162 71.164L464.851 63.3288L411.447 84.2281L390.162 71.164Z" fill="#006341"/>
<path d="M464.851 63.3288L420.336 106.356L411.447 84.2281L464.851 63.3288Z" fill="#68E1FD"/>
<path d="M464.851 63.3288L420.336 106.356L411.447 84.2281L464.851 63.3288Z" fill="url(#paint9_linear)"/>
<path d="M402.64 107.833L411.447 84.2281L464.851 63.3288L402.64 107.833Z" fill="#006341"/>
<path d="M464.851 63.3288L411.447 79.6631L390.162 71.164L411.447 84.2281L464.851 63.3288Z" fill="url(#paint10_linear)"/>
</g>
<defs>
<linearGradient id="paint0_linear" x1="379.561" y1="206.802" x2="247.386" y2="693.826" gradientUnits="userSpaceOnUse">
<stop offset="0.01"/>
<stop offset="0.13" stop-opacity="0.69"/>
<stop offset="0.25" stop-opacity="0.32"/>
<stop offset="1" stop-opacity="0"/>
</linearGradient>
<linearGradient id="paint1_linear" x1="17877.8" y1="24273.8" x2="1712.55" y2="41882.3" gradientUnits="userSpaceOnUse">
<stop offset="0.01"/>
<stop offset="0.13" stop-opacity="0.69"/>
<stop offset="0.25" stop-opacity="0.32"/>
<stop offset="1" stop-opacity="0"/>
</linearGradient>
<linearGradient id="paint2_linear" x1="103.354" y1="144.73" x2="382.663" y2="365.964" gradientUnits="userSpaceOnUse">
<stop stop-color="white"/>
<stop offset="1" stop-color="#CBCBCB"/>
</linearGradient>
<linearGradient id="paint3_linear" x1="17048" y1="9251.06" x2="16545.7" y2="12923.5" gradientUnits="userSpaceOnUse">
<stop offset="0.01"/>
<stop offset="0.13" stop-opacity="0.69"/>
<stop offset="0.25" stop-opacity="0.32"/>
<stop offset="1" stop-opacity="0"/>
</linearGradient>
<linearGradient id="paint4_linear" x1="2038.45" y1="768.978" x2="2043.74" y2="826.49" gradientUnits="userSpaceOnUse">
<stop stop-color="white"/>
<stop offset="1" stop-color="#CBCBCB"/>
</linearGradient>
<linearGradient id="paint5_linear" x1="929.708" y1="1009.75" x2="936.861" y2="1055.22" gradientUnits="userSpaceOnUse">
<stop stop-color="white"/>
<stop offset="1" stop-color="#CBCBCB"/>
</linearGradient>
<linearGradient id="paint6_linear" x1="25022.9" y1="20960.9" x2="37817.9" y2="24769.1" gradientUnits="userSpaceOnUse">
<stop stop-color="white"/>
<stop offset="1" stop-color="#CBCBCB"/>
</linearGradient>
<linearGradient id="paint7_linear" x1="435.175" y1="206.669" x2="252.112" y2="242.659" gradientUnits="userSpaceOnUse">
<stop offset="0.01" stop-color="white"/>
<stop offset="1" stop-color="white" stop-opacity="0"/>
</linearGradient>
<linearGradient id="paint8_linear" x1="3310.24" y1="3473.74" x2="3438.16" y2="3531.88" gradientUnits="userSpaceOnUse">
<stop stop-color="white"/>
<stop offset="1" stop-color="#CBCBCB"/>
</linearGradient>
<linearGradient id="paint9_linear" x1="13886.4" y1="1607.14" x2="15423.4" y2="3676.01" gradientUnits="userSpaceOnUse">
<stop offset="0.01"/>
<stop offset="0.13" stop-opacity="0.69"/>
<stop offset="0.25" stop-opacity="0.32"/>
<stop offset="1" stop-opacity="0"/>
</linearGradient>
<linearGradient id="paint10_linear" x1="19606.2" y1="605.666" x2="19606.2" y2="1510.19" gradientUnits="userSpaceOnUse">
<stop offset="0.01"/>
<stop offset="0.13" stop-opacity="0.69"/>
<stop offset="0.25" stop-opacity="0.32"/>
<stop offset="1" stop-opacity="0"/>
</linearGradient>
<clipPath id="clip0">
<rect width="591" height="481" fill="white"/>
</clipPath>
</defs>
</svg>
