<svg width="482" height="338" viewBox="0 0 482 338" fill="none" xmlns="http://www.w3.org/2000/svg">
<path d="M45.1129 233.64C70.028 233.64 90.2258 213.442 90.2258 188.527C90.2258 163.612 70.028 143.414 45.1129 143.414C20.1977 143.414 0 163.612 0 188.527C0 213.442 20.1977 233.64 45.1129 233.64Z" fill="#07AC04"/>
<path d="M57.3015 254.403L46.2044 261.28V214.797L58.6429 207.09C59.6713 206.452 60.4227 205.452 60.7483 204.287C59.56 204.06 58.3298 204.288 57.3015 204.925L46.2043 211.801V193.777C46.2043 190.29 45.7767 186.816 44.931 183.433C44.0853 186.816 43.6576 190.29 43.6576 193.777V223.196L27.2863 213.051C25.979 212.241 24.4665 211.824 22.9288 211.849C23.5907 213.237 24.6376 214.406 25.9448 215.216L43.6577 226.192V332.532H46.2044V264.276L58.6429 256.568C59.6713 255.931 60.4227 254.931 60.7483 253.766C59.5601 253.539 58.3299 253.766 57.3015 254.403Z" fill="#006341"/>
<path d="M94.3813 171.126C137.279 171.126 172.054 136.351 172.054 93.4531C172.054 50.5555 137.279 15.7802 94.3813 15.7802C51.4837 15.7802 16.7084 50.5555 16.7084 93.4531C16.7084 136.351 51.4837 171.126 94.3813 171.126Z" fill="#07AC04"/>
<path d="M115.367 206.876L96.2606 218.716V138.685L117.677 125.414C119.447 124.317 120.741 122.594 121.302 120.588L121.302 120.588H121.302C119.256 120.198 117.138 120.59 115.367 121.687L96.2606 133.526V102.493C96.2606 96.489 95.5243 90.508 94.0682 84.6836C92.6121 90.508 91.8759 96.489 91.8759 102.493V153.145L63.6884 135.679C61.4377 134.284 58.8335 133.565 56.186 133.609C57.3256 135.999 59.1281 138.011 61.3788 139.406L91.8758 158.304V331.796H96.2606V223.874L117.677 210.604C119.447 209.506 120.741 207.784 121.302 205.778L121.302 205.778H121.302C119.256 205.387 117.138 205.779 115.367 206.876Z" fill="#006341"/>
<path opacity="0.18" d="M239.888 325.594C241.847 325.712 243.795 325.808 245.732 325.902C276.825 327.343 308.6 327.102 338.237 317.612C367.875 308.121 395.477 288.06 407.509 259.422C413.739 244.55 415.533 228.277 418.117 212.366C422.948 182.531 430.782 153.033 431.926 122.842C433.071 92.65 426.663 60.6709 406.464 38.1412C371.424 -0.993151 320.895 20.3873 277.782 29.5923C252.196 35.0332 225.729 34.8307 200.229 28.9987C183.399 25.152 167.213 18.849 150.399 14.7976C138.302 11.8804 125.685 10.1237 113.253 11.4142C101.313 12.6489 91.9917 18.0868 81.0344 22.3777C60.1786 30.599 39.034 41.206 25.4012 59.6504C14.9441 74.1361 9.86435 91.8083 11.0348 109.63C13.8895 156.606 57.2207 177.4 78.9121 214.816C91.5456 236.561 99.911 261.068 116.39 280.062C145.959 314.089 194.486 322.992 239.888 325.594Z" fill="#07AC04"/>
<path d="M481.259 335.997H240.122V337.037H481.259V335.997Z" fill="#3F3D56"/>
<path d="M436.257 159.139C436.722 159.684 437.066 160.321 437.268 161.008C437.471 161.695 437.527 162.417 437.432 163.127C437.338 163.837 437.096 164.519 436.721 165.129C436.346 165.74 435.848 166.265 435.257 166.67L410.301 183.804L399.312 191.13C398.688 191.546 397.931 191.715 397.19 191.604C396.448 191.493 395.773 191.11 395.298 190.529C395.021 190.191 394.821 189.796 394.712 189.373C394.602 188.949 394.586 188.507 394.664 188.077C394.742 187.647 394.913 187.238 395.164 186.88C395.415 186.522 395.741 186.223 396.12 186.004L406.763 179.823L425.339 162.132L413.397 149.306L422.243 142.672L436.257 159.139Z" fill="#A0616A"/>
<path d="M377.573 320.468H371.468L367.842 270.048L383.322 269.606L377.573 320.468Z" fill="#A0616A"/>
<path d="M378.015 336.832C376.387 337.575 375.024 331.556 373.651 332.906C369.81 336.68 363.929 337.502 358.803 335.854L360.597 335.834C360.288 335.734 360.002 335.573 359.757 335.36C359.512 335.147 359.312 334.886 359.171 334.594C359.029 334.301 358.949 333.983 358.934 333.658C358.919 333.334 358.97 333.01 359.084 332.705C359.221 332.341 359.444 332.016 359.734 331.757C360.024 331.498 360.372 331.314 360.75 331.219L364.834 330.198L371.247 318.92L377.794 318.478C379.253 320.339 380.272 322.506 380.773 324.817C381.274 327.128 381.245 329.523 380.687 331.821C380.093 334.246 379.175 336.303 378.015 336.832Z" fill="#2F2E41"/>
<path d="M418.219 320.468H412.114L408.488 270.048L424.41 266.952L418.219 320.468Z" fill="#A0616A"/>
<path d="M418.661 336.832C417.033 337.575 415.67 331.556 414.297 332.906C410.456 336.68 404.575 337.502 399.449 335.854L401.243 335.834C400.934 335.734 400.648 335.573 400.403 335.36C400.158 335.147 399.958 334.886 399.817 334.594C399.675 334.301 399.595 333.983 399.58 333.658C399.565 333.334 399.616 333.01 399.73 332.705C399.867 332.341 400.089 332.016 400.38 331.757C400.67 331.498 401.018 331.314 401.396 331.219L405.48 330.198L411.893 318.92L418.882 318.036L419.059 318.324C420.41 320.502 421.281 322.943 421.614 325.483C421.947 328.024 421.734 330.607 420.99 333.059C420.409 334.922 419.617 336.396 418.661 336.832Z" fill="#2F2E41"/>
<path d="M425.14 143.813C419.526 144.594 415.64 147.668 414.057 153.801L403.738 134.749C403.126 133.538 402.971 132.147 403.301 130.831C403.632 129.515 404.425 128.363 405.536 127.584C406.715 126.758 408.166 126.414 409.59 126.622C411.015 126.831 412.306 127.576 413.199 128.706L425.14 143.813Z" fill="#07AC04"/>
<path d="M435.954 264.741C410.864 275.842 385.188 277.208 358.997 270.048C368.561 232.955 379.854 199.414 379.784 171.862L405.436 169.651L409.386 175.913C418.757 190.769 425.225 207.267 428.448 224.534L435.954 264.741Z" fill="#2F2E41"/>
<path d="M393.937 114.809C401.265 114.809 407.205 108.868 407.205 101.54C407.205 94.2123 401.265 88.2719 393.937 88.2719C386.609 88.2719 380.669 94.2123 380.669 101.54C380.669 108.868 386.609 114.809 393.937 114.809Z" fill="#A0616A"/>
<path d="M408.532 124.981L392.168 125.865L389.514 111.27L402.782 109.059L408.532 124.981Z" fill="#A0616A"/>
<path d="M406.763 171.862L388.835 172.367L379.784 173.632C375.341 158.955 371.601 144.313 380.669 132.057L391.283 121.443L407.205 121L407.416 121.121C409.945 122.57 411.905 124.836 412.972 127.548C414.04 130.259 414.152 133.254 413.291 136.038C409.34 148.877 406.802 161.002 406.763 171.862Z" fill="#07AC04"/>
<path d="M379.342 212.994L378.23 228.193C378.17 229.007 377.818 229.772 377.239 230.347C376.66 230.922 375.893 231.269 375.079 231.324C374.609 231.355 374.139 231.288 373.697 231.127C373.255 230.967 372.851 230.715 372.511 230.39C372.172 230.065 371.904 229.672 371.724 229.237C371.545 228.803 371.458 228.335 371.469 227.865L371.823 212.994L382.88 170.978L383.322 145.326L395.706 144.883L394.822 174.516L379.342 212.994Z" fill="#A0616A"/>
<path d="M397.033 147.095C391.783 144.96 386.879 145.675 382.438 150.191L383.046 128.532C383.123 127.178 383.685 125.896 384.63 124.923C385.574 123.949 386.838 123.348 388.19 123.231C389.624 123.106 391.052 123.535 392.181 124.429C393.31 125.322 394.054 126.614 394.261 128.039L397.033 147.095Z" fill="#07AC04"/>
<path d="M422.022 160.584H381.332C390.824 135.449 393.885 112.066 381.332 92.0311C381.548 86.0137 389.265 80.7972 395.259 81.3735C402.338 82.0541 411.85 87.2559 413.176 94.2425L422.022 160.584Z" fill="#2F2E41"/>
<path d="M292.346 80.2687H290.49V29.4262C290.49 25.5619 289.729 21.7354 288.25 18.1653C286.771 14.5951 284.603 11.3512 281.871 8.61872C279.139 5.88623 275.895 3.71871 272.324 2.23991C268.754 0.761111 264.928 -1.15803e-05 261.063 1.32149e-10H153.347C149.483 -8.5328e-06 145.656 0.761119 142.086 2.23992C138.516 3.71873 135.272 5.88624 132.539 8.61873C129.807 11.3512 127.639 14.5951 126.161 18.1653C124.682 21.7355 123.921 25.5619 123.921 29.4262V308.352C123.921 312.216 124.682 316.043 126.161 319.613C127.639 323.183 129.807 326.427 132.539 329.159C135.272 331.892 138.516 334.059 142.086 335.538C145.656 337.017 149.483 337.778 153.347 337.778H261.063C264.928 337.778 268.754 337.017 272.324 335.538C275.895 334.059 279.139 331.892 281.871 329.159C284.603 326.427 286.771 323.183 288.25 319.613C289.729 316.043 290.49 312.216 290.49 308.352V116.459H292.346V80.2687Z" fill="#3F3D56"/>
<path d="M262.251 7.65576H248.19C248.837 9.24104 249.084 10.961 248.909 12.6641C248.734 14.3673 248.143 16.0013 247.188 17.4223C246.233 18.8433 244.944 20.0077 243.433 20.8128C241.922 21.6179 240.236 22.039 238.524 22.0392H176.814C175.102 22.039 173.417 21.6179 171.906 20.8128C170.395 20.0077 169.105 18.8433 168.15 17.4223C167.195 16.0013 166.604 14.3673 166.429 12.6641C166.255 10.961 166.501 9.24104 167.148 7.65576H154.015C151.13 7.65576 148.272 8.22416 145.606 9.32851C142.94 10.4329 140.517 12.0515 138.477 14.0921C136.436 16.1327 134.817 18.5552 133.713 21.2214C132.609 23.8875 132.04 26.7451 132.04 29.6309V308.147C132.04 311.033 132.609 313.891 133.713 316.557C134.817 319.223 136.436 321.645 138.477 323.686C140.517 325.727 142.94 327.345 145.606 328.45C148.272 329.554 151.13 330.122 154.015 330.122H262.251C265.137 330.122 267.994 329.554 270.66 328.45C273.326 327.345 275.749 325.727 277.79 323.686C279.83 321.645 281.449 319.223 282.553 316.557C283.658 313.891 284.226 311.033 284.226 308.147V29.6309C284.226 23.8027 281.911 18.2132 277.79 14.0921C273.668 9.97098 268.079 7.65575 262.251 7.65576Z" fill="white"/>
<path d="M265.22 51.1619H151.046V149.092H265.22V51.1619Z" fill="#E6E6E6"/>
<path d="M184.927 169.513C189.541 169.513 193.281 165.773 193.281 161.159C193.281 156.545 189.541 152.805 184.927 152.805C180.313 152.805 176.573 156.545 176.573 161.159C176.573 165.773 180.313 169.513 184.927 169.513Z" fill="#07AC04"/>
<path d="M189.104 160.463H185.623V156.982H184.231V160.463H180.75V161.855H184.231V165.336H185.623V161.855H189.104V160.463Z" fill="white"/>
<path d="M229.019 169.513C233.633 169.513 237.373 165.773 237.373 161.159C237.373 156.545 233.633 152.805 229.019 152.805C224.405 152.805 220.664 156.545 220.664 161.159C220.664 165.773 224.405 169.513 229.019 169.513Z" fill="#07AC04"/>
<path d="M233.196 161.855V160.463H224.842V161.855H233.196Z" fill="white"/>
<path d="M212.391 63.3752H203.369C203.052 63.3752 202.747 63.5013 202.523 63.7256C202.299 63.9499 202.173 64.2542 202.173 64.5715V68.5318C202.173 68.849 202.299 69.1533 202.523 69.3776C202.747 69.602 203.052 69.728 203.369 69.728H204.864V75.6619H210.896V69.728H212.391C212.709 69.728 213.013 69.602 213.237 69.3776C213.462 69.1533 213.588 68.849 213.588 68.5318V64.5715C213.588 64.2542 213.462 63.95 213.237 63.7256C213.013 63.5013 212.709 63.3752 212.391 63.3752Z" fill="#07AC04"/>
<path d="M221.428 99.6199C215.903 91.5343 213.078 81.9072 213.359 72.1177C213.364 71.8919 213.29 71.6712 213.151 71.4932C213.012 71.3153 212.815 71.191 212.595 71.1415V69.4302H203.066V71.1177H202.935C202.806 71.1179 202.679 71.1433 202.56 71.1926C202.442 71.2419 202.334 71.3141 202.244 71.405C202.153 71.4959 202.081 71.6038 202.032 71.7225C201.983 71.8411 201.958 71.9683 201.958 72.0967C201.958 72.1205 201.959 72.1442 201.961 72.1679C202.711 82.6327 200.176 92.0173 194.356 100.322C194.021 100.799 193.85 101.372 193.868 101.955L194.91 134.186C194.935 134.904 195.237 135.586 195.752 136.088C196.268 136.589 196.957 136.873 197.676 136.878H219.23C219.957 136.873 220.654 136.583 221.171 136.071C221.688 135.559 221.984 134.865 221.998 134.138L222.399 102.845C222.411 101.696 222.072 100.571 221.428 99.6199Z" fill="#3F3D56"/>
<path opacity="0.2" d="M210.51 64.6656C210.51 65.3501 210.239 66.0065 209.755 66.4905C209.271 66.9745 208.614 67.2464 207.93 67.2464C207.245 67.2464 206.589 66.9745 206.105 66.4905C205.621 66.0065 205.349 65.3501 205.349 64.6656" fill="black"/>
<path d="M218.017 110.326H215.407C215.157 108.709 214.338 107.235 213.096 106.17C211.854 105.105 210.272 104.519 208.636 104.519C207 104.519 205.419 105.105 204.177 106.17C202.935 107.235 202.115 108.709 201.866 110.326H199.256C198.978 110.326 198.704 110.386 198.452 110.502C198.199 110.618 197.975 110.787 197.794 110.998C197.613 111.209 197.48 111.456 197.404 111.723C197.328 111.99 197.31 112.27 197.352 112.545L200.187 130.972H216.466L219.91 112.607C219.962 112.329 219.952 112.043 219.881 111.769C219.81 111.495 219.679 111.24 219.499 111.022C219.318 110.804 219.091 110.629 218.835 110.509C218.579 110.388 218.3 110.326 218.017 110.326Z" fill="#07AC04"/>
<path d="M265.22 189.006H151.046V286.936H265.22V189.006Z" fill="#E6E6E6"/>
<path d="M184.927 307.357C189.541 307.357 193.281 303.617 193.281 299.003C193.281 294.389 189.541 290.649 184.927 290.649C180.313 290.649 176.573 294.389 176.573 299.003C176.573 303.617 180.313 307.357 184.927 307.357Z" fill="#07AC04"/>
<path d="M189.104 298.307H185.623V294.826H184.231V298.307H180.75V299.699H184.231V303.18H185.623V299.699H189.104V298.307Z" fill="white"/>
<path d="M229.019 307.357C233.633 307.357 237.373 303.617 237.373 299.003C237.373 294.389 233.633 290.649 229.019 290.649C224.405 290.649 220.664 294.389 220.664 299.003C220.664 303.617 224.405 307.357 229.019 307.357Z" fill="#07AC04"/>
<path d="M233.196 299.699V298.307H224.842V299.699H233.196Z" fill="white"/>
<path d="M230.61 258.577L230.673 258.577C232.822 258.595 234.928 257.965 236.714 256.769C238.5 255.572 239.884 253.865 240.685 251.871C243.211 245.485 243.802 238.497 242.386 231.778C240.969 225.058 237.607 218.904 232.719 214.081C227.83 209.258 221.631 205.979 214.893 204.654C208.155 203.328 201.176 204.014 194.825 206.625C188.474 209.237 183.031 213.659 179.174 219.341C175.318 225.023 173.218 231.714 173.136 238.58C173.054 245.447 174.994 252.186 178.714 257.958C182.434 263.731 187.77 268.281 194.057 271.044C196.011 271.909 198.181 272.163 200.282 271.773C202.383 271.384 204.318 270.368 205.832 268.86C209.079 265.596 212.94 263.007 217.193 261.242C221.445 259.477 226.005 258.571 230.61 258.577Z" fill="white"/>
<path d="M212.628 247.981C219.012 247.981 224.188 242.806 224.188 236.422C224.188 230.037 219.012 224.862 212.628 224.862C206.244 224.862 201.069 230.037 201.069 236.422C201.069 242.806 206.244 247.981 212.628 247.981Z" fill="#F9A825"/>
</svg>
