<svg width="485" height="391" viewBox="0 0 485 391" fill="none" xmlns="http://www.w3.org/2000/svg">
<path d="M137.999 262.758C168.717 262.758 193.619 237.856 193.619 207.138C193.619 176.42 168.717 151.519 137.999 151.519C107.281 151.519 82.3798 176.42 82.3798 207.138C82.3798 237.856 107.281 262.758 137.999 262.758Z" fill="#07AC04"/>
<path d="M122.972 288.357L136.653 296.835V239.527L121.318 230.024C120.05 229.239 119.124 228.006 118.722 226.569C120.187 226.289 121.704 226.57 122.972 227.356L136.654 235.834V213.611C136.654 209.312 137.181 205.029 138.223 200.859C139.266 205.029 139.793 209.312 139.793 213.611V249.882L159.978 237.375C161.589 236.376 163.454 235.862 165.35 235.893C164.534 237.604 163.243 239.045 161.631 240.044L139.793 253.576V390.25H136.653V300.529L121.318 291.026C120.05 290.241 119.124 289.007 118.722 287.571C120.187 287.291 121.704 287.572 122.972 288.357Z" fill="#0A3E2C"/>
<path d="M55.6194 267.48C86.3372 267.48 111.239 242.578 111.239 211.861C111.239 181.143 86.3372 156.241 55.6194 156.241C24.9017 156.241 0 181.143 0 211.861C0 242.578 24.9017 267.48 55.6194 267.48Z" fill="#07AC04"/>
<path d="M70.6467 293.08L56.965 301.558V244.25L72.3005 234.747C73.5683 233.961 74.4948 232.728 74.8962 231.291C73.4312 231.012 71.9145 231.292 70.6466 232.078L56.965 240.556V218.334C56.965 214.035 56.4378 209.752 55.3951 205.581C54.3525 209.752 53.8252 214.035 53.8252 218.334V254.605L33.6411 242.097C32.0294 241.098 30.1646 240.584 28.2688 240.615C29.0848 242.327 30.3755 243.767 31.9872 244.766L53.8252 258.298V389.404H56.965V305.252L72.3005 295.749C73.5683 294.963 74.4948 293.73 74.8962 292.293C73.4312 292.014 71.9145 292.294 70.6467 293.08Z" fill="#0A3E2C"/>
<path d="M96.022 191.525C148.91 191.525 191.785 148.651 191.785 95.7625C191.785 42.8743 148.91 0 96.022 0C43.1339 0 0.259521 42.8743 0.259521 95.7625C0.259521 148.651 43.1339 191.525 96.022 191.525Z" fill="#006341"/>
<path d="M121.895 235.601L98.3389 250.198V151.528L124.743 135.167C126.926 133.814 128.521 131.691 129.212 129.217L129.212 129.217H129.212C126.689 128.736 124.078 129.219 121.895 130.572L98.3389 145.169V106.907C98.3389 99.5054 97.4311 92.1315 95.6359 84.9507C93.8407 92.1315 92.9329 99.5054 92.9329 106.907V169.357L58.1808 147.822C55.4059 146.103 52.1952 145.217 48.9312 145.27C50.3361 148.217 52.5584 150.698 55.3333 152.417L92.9329 175.717V389.615H98.3388V256.558L124.743 240.197C126.925 238.844 128.521 236.721 129.212 234.247L129.212 234.247H129.212C126.689 233.765 124.078 234.249 121.895 235.601Z" fill="#0A3E2C"/>
<path d="M484.423 389.439H19.2135V390.583H484.423V389.439Z" fill="#3F3D56"/>
<path d="M367.89 92.1232H366.591V26.9137C366.591 20.9966 364.24 15.3219 360.056 11.1378C355.872 6.95382 350.197 4.60327 344.28 4.60327H199.058C193.141 4.60327 187.466 6.95382 183.282 11.1378C179.098 15.3219 176.748 20.9966 176.747 26.9137V55.4845H176.255C175.908 55.4845 175.575 55.6225 175.329 55.8683C175.083 56.114 174.945 56.4473 174.945 56.7948V69.5724C174.945 69.9199 175.083 70.2532 175.329 70.4989C175.575 70.7447 175.908 70.8828 176.255 70.8828H176.747V83.6718H176.141C175.969 83.6718 175.798 83.7057 175.639 83.7715C175.48 83.8373 175.336 83.9339 175.214 84.0555C175.093 84.1772 174.996 84.3217 174.93 84.4807C174.864 84.6397 174.831 84.8101 174.831 84.9822V109.164C174.831 109.511 174.969 109.845 175.214 110.09C175.46 110.336 175.793 110.474 176.141 110.474H176.747V119.853H176.198C176.026 119.853 175.856 119.887 175.697 119.952C175.538 120.018 175.393 120.115 175.272 120.236C175.15 120.358 175.053 120.503 174.988 120.662C174.922 120.82 174.888 120.991 174.888 121.163V145.574C174.888 145.921 175.026 146.255 175.272 146.5C175.517 146.746 175.851 146.884 176.198 146.884H176.747V368.119C176.747 374.036 179.098 379.711 183.282 383.895C187.466 388.079 193.141 390.43 199.058 390.43H344.28C350.197 390.43 355.872 388.079 360.056 383.895C364.24 379.711 366.591 374.036 366.591 368.119V138.89H367.89C368.237 138.89 368.57 138.752 368.816 138.507C369.062 138.261 369.2 137.928 369.2 137.58V93.4336C369.2 93.086 369.062 92.7528 368.816 92.507C368.57 92.2613 368.237 92.1232 367.89 92.1232Z" fill="#3F3D56"/>
<path d="M277.651 21.7925H255.57C254.907 21.7918 254.271 21.5282 253.803 21.0595C253.334 20.5908 253.07 19.9553 253.069 19.2924V18.3363C253.07 17.6734 253.334 17.0378 253.803 16.5692C254.271 16.1005 254.907 15.8369 255.57 15.8362H277.651C278.314 15.8369 278.95 16.1005 279.419 16.5692C279.888 17.0378 280.151 17.6734 280.152 18.3363V19.2924C280.151 19.9553 279.888 20.5908 279.419 21.0595C278.95 21.5282 278.314 21.7918 277.651 21.7925Z" fill="white"/>
<path d="M286.927 21.8727C288.615 21.8727 289.983 20.5047 289.983 18.8171C289.983 17.1295 288.615 15.7615 286.927 15.7615C285.24 15.7615 283.872 17.1295 283.872 18.8171C283.872 20.5047 285.24 21.8727 286.927 21.8727Z" fill="white"/>
<path d="M339.788 14.6514H318.044V17.2664C318.044 20.5596 316.736 23.7179 314.407 26.0466C312.079 28.3752 308.921 29.6834 305.627 29.6834H236.355C234.725 29.6842 233.111 29.3639 231.605 28.7409C230.099 28.1178 228.73 27.2042 227.577 26.0523C226.424 24.9003 225.509 23.5325 224.885 22.027C224.261 20.5215 223.939 18.9077 223.938 17.2778V14.6514H203.55C199.551 14.6514 195.716 16.2399 192.888 19.0676C190.061 21.8952 188.472 25.7303 188.472 29.7292V365.298C188.472 369.297 190.061 373.132 192.888 375.96C195.716 378.787 199.551 380.376 203.55 380.376H339.788C343.786 380.376 347.619 378.788 350.446 375.961C353.273 373.135 354.861 369.301 354.861 365.304V29.7292C354.861 27.7499 354.472 25.7898 353.715 23.9609C352.959 22.132 351.849 20.47 350.45 19.0699C349.051 17.6698 347.39 16.559 345.562 15.8008C343.733 15.0427 341.773 14.6521 339.794 14.6514H339.788Z" fill="white"/>
<path d="M300.849 339.657H242.483C238.31 339.657 234.307 337.999 231.356 335.048C228.405 332.097 226.747 328.094 226.747 323.921C226.747 319.747 228.405 315.745 231.356 312.794C234.307 309.843 238.31 308.185 242.483 308.185H300.849C305.023 308.185 309.025 309.843 311.976 312.794C314.927 315.745 316.585 319.747 316.585 323.921C316.585 328.094 314.927 332.097 311.976 335.048C309.025 337.999 305.023 339.657 300.849 339.657Z" fill="#006341"/>
<path d="M323.738 210.4H219.595C218.153 210.4 216.77 209.827 215.751 208.808C214.732 207.788 214.159 206.406 214.159 204.964C214.159 203.522 214.732 202.139 215.751 201.12C216.77 200.101 218.153 199.528 219.595 199.528H323.738C325.18 199.528 326.562 200.101 327.582 201.12C328.601 202.139 329.174 203.522 329.174 204.964C329.174 206.406 328.601 207.788 327.582 208.808C326.562 209.827 325.18 210.4 323.738 210.4Z" fill="#E6E6E6"/>
<path d="M323.738 226.422H219.595C218.153 226.422 216.77 225.849 215.751 224.83C214.732 223.81 214.159 222.428 214.159 220.986C214.159 219.544 214.732 218.161 215.751 217.142C216.77 216.123 218.153 215.55 219.595 215.55H323.738C325.18 215.55 326.562 216.123 327.582 217.142C328.601 218.161 329.174 219.544 329.174 220.986C329.174 222.428 328.601 223.81 327.582 224.83C326.562 225.849 325.18 226.422 323.738 226.422Z" fill="#E6E6E6"/>
<path d="M323.738 242.444H219.595C218.153 242.444 216.77 241.871 215.751 240.852C214.732 239.832 214.159 238.45 214.159 237.008C214.159 235.566 214.732 234.183 215.751 233.164C216.77 232.144 218.153 231.572 219.595 231.572H323.738C325.18 231.572 326.562 232.144 327.582 233.164C328.601 234.183 329.174 235.566 329.174 237.008C329.174 238.45 328.601 239.832 327.582 240.852C326.562 241.871 325.18 242.444 323.738 242.444Z" fill="#E6E6E6"/>
<path d="M323.738 258.466H219.595C218.153 258.466 216.77 257.893 215.751 256.874C214.732 255.854 214.159 254.472 214.159 253.03C214.159 251.588 214.732 250.205 215.751 249.186C216.77 248.166 218.153 247.594 219.595 247.594H323.738C325.18 247.594 326.562 248.166 327.582 249.186C328.601 250.205 329.174 251.588 329.174 253.03C329.174 254.472 328.601 255.854 327.582 256.874C326.562 257.893 325.18 258.466 323.738 258.466Z" fill="#E6E6E6"/>
<path d="M252.784 274.488H219.595C218.153 274.488 216.77 273.915 215.751 272.896C214.732 271.876 214.159 270.494 214.159 269.052C214.159 267.61 214.732 266.228 215.751 265.208C216.77 264.189 218.153 263.616 219.595 263.616H252.784C254.225 263.616 255.608 264.189 256.627 265.208C257.647 266.228 258.22 267.61 258.22 269.052C258.22 270.494 257.647 271.876 256.627 272.896C255.608 273.915 254.225 274.488 252.784 274.488H252.784Z" fill="#E6E6E6"/>
<path d="M340.038 165.852H203.295C202.086 165.851 200.927 165.37 200.073 164.515C199.218 163.661 198.737 162.502 198.735 161.293V59.8041C198.737 58.5953 199.218 57.4364 200.073 56.5817C200.927 55.727 202.086 55.2462 203.295 55.2449H340.038C341.247 55.2462 342.406 55.727 343.26 56.5817C344.115 57.4365 344.596 58.5954 344.597 59.8041V161.293C344.596 162.502 344.115 163.661 343.26 164.515C342.406 165.37 341.247 165.851 340.038 165.852Z" fill="#E6E6E6"/>
<g opacity="0.1">
<path opacity="0.1" d="M364.258 136.882C364.258 136.096 364.258 135.306 364.258 134.513C364.227 135.125 364.227 135.738 364.258 136.35C364.253 136.527 364.258 136.705 364.258 136.882Z" fill="black"/>
</g>
<path d="M387.069 181.878C395.361 181.878 402.083 175.155 402.083 166.863C402.083 158.571 395.361 151.849 387.069 151.849C378.777 151.849 372.055 158.571 372.055 166.863C372.055 175.155 378.777 181.878 387.069 181.878Z" fill="#FFB8B8"/>
<path d="M426.118 288.611C426.704 288.074 427.166 287.416 427.469 286.682C427.773 285.948 427.913 285.156 427.877 284.362C427.842 283.568 427.634 282.792 427.266 282.088C426.898 281.383 426.381 280.768 425.749 280.286L423.702 262.101L412.301 265.213L417.852 281.58C417.112 282.694 416.805 284.041 416.992 285.366C417.178 286.69 417.844 287.901 418.862 288.767C419.881 289.634 421.183 290.096 422.52 290.068C423.857 290.039 425.138 289.52 426.118 288.611V288.611Z" fill="#FFB8B8"/>
<path d="M434.449 380.683L440.742 376.613L428.036 350.404L418.749 356.411L434.449 380.683Z" fill="#FFB8B8"/>
<path d="M456.657 374.606L436.88 387.398L431.937 379.757L444.359 371.722C445.325 371.098 446.405 370.669 447.536 370.462C448.668 370.254 449.829 370.271 450.954 370.513C452.079 370.754 453.145 371.214 454.092 371.868C455.039 372.521 455.848 373.354 456.472 374.32L456.657 374.606Z" fill="#2F2E41"/>
<path d="M378.72 383.346H386.214L389.781 354.439H378.72V383.346Z" fill="#FFB8B8"/>
<path d="M400.668 390.305H377.114V381.205H391.908C394.231 381.205 396.459 382.128 398.102 383.771C399.745 385.414 400.668 387.642 400.668 389.965V390.305V390.305Z" fill="#2F2E41"/>
<path d="M408.798 196.675C407.802 199.921 411.334 203.453 412.475 206.643C413.615 209.833 415.15 212.902 415.766 216.24C416.188 218.534 425.749 269.226 425.289 272.313C422.346 271.431 419.176 271.722 416.443 273.124C414.534 269.77 413.386 266.036 413.082 262.188C412.967 259.906 412.989 257.62 413.147 255.34C413.444 248.892 410.648 242.434 410.555 235.98C410.584 233.743 410.407 231.509 410.027 229.304C409.721 227.788 409.749 224.951 409.42 223.439C408.896 221.038 411.149 219.93 411.024 217.468L410.337 204.024C410.194 201.668 407.829 198.78 408.798 196.675Z" fill="#2F2E41"/>
<path d="M374.901 253.084C372.491 256.843 367.419 257.657 363.871 260.349C358.449 264.488 372.281 357.471 376.847 373.989C388.895 372.182 389.317 372.188 390.703 371.58C392.088 370.971 393.341 323.742 396.269 314.007C401.748 319.171 418.992 363.549 422.631 373.387C437.089 369.772 422.631 373.387 441.306 368.567C441.149 365.158 413.709 254.054 412.709 245.301C400.155 247.801 387.419 250.59 374.901 253.084Z" fill="#2F2E41"/>
<path d="M373.277 183.263C371.788 187.672 373.814 204.826 373.963 208.683C374.176 212.185 374.176 215.696 373.963 219.198C373.448 225.262 371.645 231.367 372.855 237.329C373.647 241.275 375.057 244.942 375.386 248.957C375.609 251.738 375.539 254.566 376.42 257.204C379.665 255.813 408.437 251.032 410.551 248.252C409.104 241.265 410.504 234.052 409.545 226.982C408.988 222.906 407.611 218.984 406.962 214.928C406.16 209.921 406.499 204.728 405.038 199.865C404.229 197.403 403.2 195.018 401.965 192.739C400.708 190.148 399.131 188.019 398.591 188.02C397.223 188.094 373.364 182.87 373.277 183.263Z" fill="#07AC04"/>
<path d="M367.769 288.233C367.769 288.233 372.758 278.28 373.008 272.587C373.096 270.542 378.696 262.406 381.218 260.561C387.199 256.179 391.608 226.815 389.587 219.689C386.091 207.371 380.203 195.887 374.227 184.566C374.049 184.144 373.761 183.777 373.393 183.504C372.178 182.748 370.861 184.237 370.032 185.4C367.217 189.346 362.581 191.455 358.335 193.787C354.088 196.119 349.744 199.225 348.46 203.894C347.597 207.028 348.27 210.352 348.923 213.527C349.577 216.703 351.863 219.225 353.592 221.9C355.596 224.852 360.804 237.945 360.764 239.499C360.866 249.105 360.963 258.743 359.8 268.284C359.146 273.676 358.571 284.511 358.571 284.511L367.769 288.233Z" fill="#2F2E41"/>
<path d="M413.073 277.942C403.889 257.037 404.403 233.25 398.567 211.182C396.833 204.631 394.515 198.048 394.932 191.284C395.006 190.074 395.261 188.715 396.272 188.039C397.171 187.436 398.395 187.598 399.383 188.039C400.37 188.479 401.214 189.198 402.164 189.689C403.699 190.472 405.484 190.695 406.958 191.58C409.146 192.897 410.263 195.401 411.242 197.756C413.333 202.786 415.414 207.955 415.581 213.407C415.933 223.996 411.237 234.172 413.685 244.469C414.213 246.5 414.844 248.502 415.576 250.468C418.031 257.571 420.043 264.819 421.603 272.17C421.877 273.426 413.458 278.822 413.073 277.942Z" fill="#2F2E41"/>
<path d="M383.917 272.995C384.04 272.21 383.989 271.408 383.768 270.645C383.547 269.881 383.162 269.176 382.639 268.578C382.116 267.98 381.468 267.504 380.741 267.183C380.014 266.862 379.226 266.705 378.432 266.722L365.48 253.793L358.516 263.342L373.07 272.663C373.187 273.996 373.789 275.239 374.761 276.157C375.733 277.076 377.009 277.606 378.346 277.647C379.683 277.688 380.988 277.237 382.015 276.379C383.042 275.522 383.719 274.318 383.917 272.995Z" fill="#FFB8B8"/>
<path d="M342.651 243.634C342.864 245.577 359.181 266.063 368.047 272.749C367.532 270.111 374.482 261.506 376.73 260.162C371.112 254.861 359.371 242.567 358.983 241.896C357.713 239.443 358.983 236.513 360.092 233.977C363.583 225.915 365.228 216.768 362.989 208.27C362.145 205.081 360.671 201.886 357.987 199.925C356.814 199.072 355.228 198.488 353.926 199.137C353.38 199.451 352.906 199.876 352.535 200.384C348.376 205.442 342.493 242.192 342.651 243.634Z" fill="#2F2E41"/>
<path d="M380.67 180.001C381.546 176.282 377.115 168.279 377.992 164.559C378.585 162.04 384.508 163.753 385.89 161.565C387.273 159.377 389.588 157.605 392.176 157.576C395.15 157.542 398.077 159.748 400.894 158.795C403.743 157.831 404.654 153.929 403.394 151.198C402.135 148.467 399.422 146.727 396.741 145.363C392.176 143.041 386.861 141.345 381.975 142.881C379.022 143.81 376.552 145.823 374.163 147.791C371.984 149.585 369.769 151.42 368.247 153.796C365.263 158.451 365.443 164.723 367.993 169.629C370.542 174.535 375.187 178.135 380.306 180.225" fill="#2F2E41"/>
</svg>
