<svg width="524" height="421" viewBox="0 0 524 421" fill="none" xmlns="http://www.w3.org/2000/svg">
<path opacity="0.18" d="M312.41 370.339C314.539 370.468 316.656 370.571 318.76 370.674C352.545 372.239 387.071 371.978 419.274 361.666C451.477 351.353 481.468 329.556 494.542 298.439C501.312 282.279 503.261 264.597 506.068 247.309C511.317 214.891 519.83 182.84 521.073 150.035C522.316 117.229 515.354 82.4817 493.407 58.0016C455.334 15.4794 400.43 38.7108 353.585 48.7127C325.784 54.6246 297.026 54.4045 269.318 48.0677C251.031 43.888 233.444 37.0393 215.175 32.6372C202.03 29.4674 188.321 27.5586 174.812 28.9609C161.838 30.3025 151.711 36.2112 139.805 40.8735C117.144 49.8065 94.1684 61.3317 79.3554 81.3728C67.9931 97.1126 62.4736 116.315 63.7453 135.679C66.8472 186.722 113.93 209.316 137.499 249.971C151.226 273.598 160.316 300.228 178.221 320.866C210.35 357.838 263.078 367.512 312.41 370.339Z" fill="#07AC04"/>
<path d="M133.415 255.637C132.066 255.637 130.704 255.615 129.367 255.574L129.397 254.603C131.317 254.662 133.277 254.679 135.206 254.652L135.219 255.624C134.619 255.633 134.017 255.637 133.415 255.637ZM141.068 255.411L141.011 254.441C142.935 254.328 144.882 254.168 146.8 253.968L146.902 254.934C144.969 255.137 143.007 255.297 141.068 255.411ZM123.522 255.26C121.583 255.111 119.624 254.917 117.698 254.68L117.817 253.716C119.728 253.95 121.672 254.144 123.597 254.291L123.522 255.26ZM152.707 254.191L152.561 253.23C154.472 252.941 156.397 252.604 158.283 252.23L158.472 253.183C156.572 253.56 154.633 253.899 152.707 254.191ZM111.907 253.836C109.991 253.511 108.057 253.138 106.16 252.726L106.366 251.776C108.249 252.185 110.168 252.555 112.069 252.877L111.907 253.836ZM164.185 251.91L163.952 250.967C165.827 250.503 167.713 249.99 169.558 249.444L169.834 250.376C167.976 250.927 166.075 251.443 164.185 251.91ZM100.47 251.353C98.5909 250.853 96.6999 250.304 94.8495 249.718L95.1424 248.792C96.9788 249.372 98.8553 249.918 100.72 250.413L100.47 251.353ZM175.406 248.582L175.087 247.664C176.907 247.032 178.737 246.348 180.528 245.631L180.889 246.534C179.084 247.256 177.24 247.945 175.406 248.582H175.406ZM89.296 247.821C87.471 247.15 85.6346 246.426 83.8383 245.67L84.2157 244.774C85.9982 245.525 87.8204 246.243 89.6316 246.909L89.296 247.821ZM186.26 244.24L185.857 243.355C187.605 242.561 189.362 241.714 191.079 240.836L191.521 241.702C189.791 242.586 188.021 243.44 186.26 244.24H186.26ZM196.661 238.924L196.18 238.08C197.856 237.124 199.529 236.118 201.152 235.092L201.672 235.913C200.036 236.948 198.351 237.961 196.661 238.924H196.661ZM206.54 232.675L205.984 231.879C207.562 230.776 209.137 229.621 210.665 228.447L211.258 229.218C209.718 230.401 208.131 231.564 206.54 232.675ZM58.3661 231.306C56.797 230.167 55.2295 228.973 53.7069 227.758L54.3135 226.998C55.8245 228.204 57.3801 229.389 58.9371 230.519L58.3661 231.306ZM215.814 225.549L215.187 224.806C216.658 223.565 218.122 222.272 219.539 220.962L220.199 221.676C218.771 222.995 217.296 224.299 215.814 225.549H215.814ZM49.2153 224.001C47.7539 222.722 46.302 221.391 44.9002 220.045L45.5734 219.344C46.9647 220.679 48.4054 222 49.8556 223.27L49.2153 224.001ZM224.404 217.605L223.712 216.922C225.068 215.548 226.41 214.126 227.699 212.696L228.421 213.347C227.122 214.788 225.771 216.22 224.404 217.605ZM40.7708 215.898C39.43 214.489 38.1058 213.031 36.835 211.568L37.5694 210.931C38.8304 212.384 40.1444 213.829 41.4752 215.228L40.7708 215.898ZM232.24 208.909L231.489 208.292C232.714 206.802 233.921 205.264 235.076 203.72L235.854 204.301C234.691 205.857 233.475 207.408 232.24 208.909L232.24 208.909ZM33.1012 207.064C31.8972 205.543 30.7116 203.973 29.5773 202.396L30.3662 201.829C31.492 203.393 32.6685 204.951 33.8636 206.461L33.1012 207.064ZM239.254 199.533L238.45 198.987C239.534 197.391 240.596 195.748 241.606 194.104L242.434 194.612C241.416 196.269 240.346 197.925 239.254 199.533L239.254 199.533ZM26.271 197.574C25.2117 195.951 24.175 194.28 23.1893 192.607L24.0266 192.114C25.005 193.774 26.0339 195.432 27.0852 197.043L26.271 197.574ZM245.386 189.55L244.535 189.08C245.469 187.392 246.375 185.657 247.231 183.925L248.103 184.356C247.241 186.101 246.326 187.849 245.386 189.55ZM250.578 179.042L249.687 178.652C250.462 176.883 251.206 175.072 251.899 173.268L252.806 173.616C252.108 175.434 251.358 177.26 250.578 179.042ZM15.3555 176.945C14.6102 175.157 13.8965 173.327 13.2343 171.506L14.1481 171.174C14.8051 172.981 15.5133 174.796 16.2527 176.571L15.3555 176.945ZM254.782 168.092L253.859 167.786C254.466 165.959 255.038 164.09 255.56 162.233L256.497 162.496C255.97 164.368 255.393 166.25 254.782 168.092ZM11.3616 165.962C10.7832 164.109 10.2396 162.217 9.74618 160.337L10.6866 160.09C11.1762 161.956 11.7157 163.834 12.2896 165.672L11.3616 165.962ZM257.951 156.827L257.003 156.607C257.439 154.734 257.837 152.821 258.186 150.922L259.142 151.098C258.79 153.012 258.389 154.939 257.951 156.828V156.827ZM8.39235 154.643C7.98695 152.745 7.62001 150.811 7.30195 148.894L8.26086 148.734C8.57677 150.637 8.94086 152.556 9.34317 154.44L8.39235 154.643ZM260.069 145.32L259.105 145.188C259.367 143.284 259.588 141.343 259.762 139.418L260.73 139.506C260.555 141.446 260.332 143.402 260.069 145.32V145.32ZM6.47645 143.101C6.24717 141.177 6.05895 139.217 5.91677 137.276L6.88659 137.205C7.02734 139.132 7.21438 141.076 7.442 142.986L6.47645 143.101ZM261.126 133.668L260.155 133.624C260.241 131.698 260.286 129.745 260.286 127.818H261.258C261.258 129.76 261.214 131.728 261.126 133.668ZM5.62222 131.432C5.58899 130.24 5.57215 129.024 5.5719 127.818C5.5719 127.07 5.57831 126.324 5.59112 125.579L6.56331 125.596C6.5505 126.335 6.54409 127.076 6.54409 127.818C6.54433 129.015 6.56118 130.222 6.59393 131.405L5.62222 131.432ZM6.79402 119.793L5.82373 119.732C5.94502 117.79 6.11259 115.829 6.32122 113.902L7.28771 114.006C7.08051 115.919 6.91458 117.865 6.794 119.793H6.79402ZM259.658 113.863C259.464 111.947 259.197 111.012 258.915 109.104L259.876 108.963C260.16 110.885 260.404 112.352 260.6 114.283L259.658 113.863ZM8.04461 108.249L7.08381 108.1C7.38168 106.178 7.72775 104.239 8.11249 102.339L9.06523 102.532C8.68356 104.418 8.34011 106.341 8.04461 108.249ZM257.933 103.381C257.563 101.485 257.145 99.5767 256.69 97.7086L257.634 97.4789C258.092 99.3612 258.514 101.285 258.888 103.195L257.933 103.381ZM10.3474 96.8683L9.40439 96.6319C9.87648 94.7494 10.3994 92.8512 10.9586 90.9898L11.8894 91.2693C11.3348 93.1165 10.8159 95.0002 10.3474 96.8683ZM255.186 92.0989C254.644 90.2482 254.051 88.3865 253.425 86.565L254.344 86.2489C254.976 88.0844 255.573 89.9608 256.119 91.8255L255.186 92.0989ZM13.694 85.7323L12.7769 85.41C13.423 83.5725 14.1206 81.7263 14.8502 79.9225L15.7516 80.287C15.0275 82.0768 14.3351 83.909 13.694 85.7323ZM251.411 81.1179C250.701 79.329 249.942 77.5338 249.153 75.7818L250.04 75.3827C250.835 77.1482 251.6 78.9572 252.314 80.7595L251.411 81.1179ZM18.0575 74.9444L17.1741 74.5385C17.9861 72.7706 18.8503 70.9977 19.7427 69.2692L20.6066 69.7148C19.7209 71.4303 18.8633 73.1897 18.0575 74.9444ZM246.653 70.553C245.783 68.8371 244.861 67.1175 243.913 65.4429L244.759 64.964C245.714 66.6517 246.643 68.3843 247.519 70.1135L246.653 70.553ZM23.3934 64.6095L22.5508 64.1244C23.5206 62.4407 24.5433 60.7554 25.5908 59.1156L26.4101 59.6386C25.3708 61.2661 24.3556 62.9386 23.3934 64.6095ZM240.941 60.4614C239.914 58.8263 238.838 57.1975 237.744 55.6199L238.542 55.066C239.645 56.6557 240.729 58.2969 241.764 59.9445L240.941 60.4614ZM29.6509 54.8123L28.8563 54.2523C29.977 52.663 31.1488 51.079 32.3399 49.5441L33.1079 50.1398C31.9262 51.6633 30.7629 53.2352 29.6509 54.8123ZM234.328 50.9281C233.156 49.3939 231.936 47.8687 230.701 46.3951L231.446 45.7707C232.691 47.2558 233.92 48.7923 235.101 50.3382L234.328 50.9281ZM36.7738 45.6312L36.0337 45.0009C37.2915 43.5239 38.6024 42.0538 39.9299 40.6314L40.6405 41.2945C39.3232 42.7062 38.0223 44.1654 36.7738 45.6312ZM226.871 42.0308C225.565 40.6096 224.21 39.2009 222.845 37.8445L223.53 37.1549C224.906 38.522 226.271 39.9411 227.587 41.373L226.871 42.0308ZM44.6994 37.1397L44.0197 36.4449C45.4098 35.0851 46.8484 33.7408 48.2951 32.4494L48.9425 33.1746C47.5068 34.456 46.0792 35.7901 44.6994 37.1397ZM218.633 33.8447C217.202 32.5469 215.724 31.2669 214.241 30.0402L214.861 29.2913C216.355 30.5272 217.844 31.8169 219.286 33.1247L218.633 33.8447ZM53.3608 29.4066L52.7471 28.6529C54.2507 27.4287 55.8046 26.2213 57.3659 25.0642L57.9451 25.8449C56.3954 26.9935 54.8531 28.1916 53.3608 29.4066ZM62.6852 22.497L62.1426 21.6906C63.7518 20.608 65.4085 19.548 67.0669 18.5392L67.572 19.3698C65.9264 20.3707 64.2823 21.423 62.6852 22.497ZM72.5955 16.4699L72.1289 15.617C73.8314 14.6856 75.5771 13.782 77.3174 12.9307L77.7446 13.804C76.0177 14.6486 74.2852 15.5454 72.5955 16.4699ZM189.924 14.2179C188.194 13.3562 186.422 12.5238 184.657 11.7437L185.051 10.8548C186.829 11.6408 188.615 12.4796 190.358 13.3479L189.924 14.2179ZM83.0086 11.3776L82.6222 10.4858C84.4014 9.71476 86.2214 8.97532 88.0314 8.28785L88.3765 9.19672C86.5803 9.87876 84.7742 10.6125 83.0086 11.3776ZM179.281 9.51401C177.48 8.81611 175.638 8.15021 173.804 7.53512L174.114 6.61342C175.961 7.2335 177.818 7.90436 179.632 8.60797L179.281 9.51401ZM93.8527 7.26057L93.5498 6.33698C95.3974 5.73137 97.2824 5.16113 99.1523 4.64262L99.4122 5.57903C97.5565 6.09374 95.686 6.65947 93.8527 7.26057ZM168.256 5.81538C166.402 5.2869 164.511 4.79473 162.635 4.35263L162.858 3.40673C164.748 3.85215 166.654 4.34811 168.523 4.8804L168.256 5.81538ZM105.044 4.15543L104.827 3.20787C106.721 2.77526 108.651 2.3811 110.561 2.03653L110.734 2.99287C108.838 3.33506 106.923 3.72614 105.044 4.15543ZM156.952 3.15091C155.059 2.79567 153.131 2.47957 151.221 2.21142L151.356 1.24891C153.281 1.5192 155.224 1.83766 157.132 2.19552L156.952 3.15091ZM116.473 2.09325L116.344 1.12979C118.269 0.873029 120.226 0.657079 122.161 0.488597L122.246 1.4568C120.325 1.62433 118.383 1.83838 116.473 2.09325ZM145.452 1.53558C143.537 1.35523 141.588 1.21618 139.658 1.12291L139.706 0.15188C141.649 0.246091 143.613 0.386104 145.543 0.567898L145.452 1.53558ZM128.043 1.08399L128.002 0.112961C129.789 0.0384473 131.61 0.000476282 133.415 0L133.855 0.000714697L133.852 0.972718L133.415 0.972003C131.623 0.97245 129.816 1.01018 128.043 1.08398V1.08399Z" fill="#3F3D56"/>
<path d="M289.83 45.7842V360.81C289.826 364.563 288.332 368.161 285.677 370.813C283.023 373.466 279.423 374.957 275.67 374.958H147.754C145.894 374.961 144.052 374.598 142.333 373.888C140.615 373.178 139.053 372.136 137.737 370.822C136.422 369.508 135.379 367.947 134.668 366.229C133.957 364.511 133.592 362.67 133.594 360.81V45.7842C133.594 43.925 133.96 42.084 134.671 40.3663C135.383 38.6485 136.426 37.0878 137.741 35.7732C139.056 34.4585 140.617 33.4157 142.335 32.7043C144.053 31.9929 145.894 31.6268 147.754 31.627H166.896V34.0813C166.896 37.1727 168.124 40.1378 170.31 42.3243C172.496 44.5107 175.461 45.7395 178.553 45.7404H243.612C246.101 45.7458 248.525 44.9481 250.524 43.466C250.928 43.172 251.311 42.8505 251.671 42.5037C252.81 41.4165 253.716 40.1094 254.334 38.6616C254.953 37.2138 255.27 35.6555 255.268 34.0813V31.627H275.67C277.529 31.6264 279.371 31.9922 281.089 32.7034C282.807 33.4147 284.368 34.4575 285.683 35.7722C286.998 37.087 288.041 38.6479 288.753 40.3658C289.464 42.0837 289.83 43.9249 289.83 45.7842Z" fill="#013F2A"/>
<path d="M271.128 145.191H152.295V235.587H271.128V145.191Z" fill="#07AC04"/>
<path d="M89.7191 129.96C100.299 130.187 108.716 137.853 108.716 137.853C108.716 137.853 99.9783 145.151 89.3981 144.924C78.8178 144.697 70.4014 137.031 70.4014 137.031C70.4014 137.031 79.1389 129.733 89.7191 129.96Z" fill="#07AC04"/>
<path d="M36.5269 93.851C46.0857 98.3914 57.0466 95.3125 57.0466 95.3125C57.0466 95.3125 52.5096 84.8723 42.9508 80.332C33.392 75.7917 22.4312 78.8705 22.4312 78.8705C22.4312 78.8705 26.9681 89.3107 36.5269 93.851Z" fill="#07AC04"/>
<path d="M37.4988 89.3393C48.0376 88.3764 57.2621 95.0483 57.2621 95.0483C57.2621 95.0483 49.4 103.281 38.8612 104.244C28.3225 105.207 19.0979 98.5354 19.0979 98.5354C19.0979 98.5354 26.96 90.3022 37.4988 89.3393Z" fill="#006341"/>
<path d="M76.1305 91.1634C75.1203 101.696 81.7523 110.948 81.7523 110.948C81.7523 110.948 90.022 103.124 91.0321 92.5921C92.0422 82.0597 85.4103 72.8073 85.4103 72.8073C85.4103 72.8073 77.1406 80.6311 76.1305 91.1634Z" fill="#006341"/>
<path d="M125.763 155.758C120.235 164.781 122.137 176.004 122.137 176.004C122.137 176.004 133.001 172.598 138.528 163.576C144.056 154.553 142.154 143.33 142.154 143.33C142.154 143.33 131.29 146.735 125.763 155.758Z" fill="#3F3D56"/>
<path d="M109.726 253.857L110.532 253.313C107.693 249.193 106.142 244.322 106.078 239.319C106.1 232.001 109.696 225.233 113.173 218.687C113.818 217.472 114.461 216.261 115.08 215.05C117.677 210.115 119.747 204.92 121.255 199.551C126.648 179.513 121.339 155.872 107.052 136.311C95.7185 120.794 78.8236 107.224 55.4025 94.8281L54.9478 95.6872C78.2354 108.013 95.0221 121.489 106.267 136.884C120.382 156.21 125.634 179.542 120.316 199.298C118.826 204.601 116.781 209.733 114.215 214.608C113.598 215.814 112.957 217.02 112.314 218.231C108.782 224.881 105.129 231.758 105.106 239.317C105.17 244.514 106.778 249.575 109.726 253.857Z" fill="#3F3D56"/>
<path d="M9.2358 96.1053C14.3366 96.1053 18.4716 91.971 18.4716 86.8712C18.4716 81.7714 14.3366 77.6372 9.2358 77.6372C4.13501 77.6372 0 81.7714 0 86.8712C0 91.971 4.13501 96.1053 9.2358 96.1053Z" fill="#006341"/>
<path d="M139.248 236.761L81.2716 231.93V146.915L139.248 144.017V236.761Z" fill="#07AC04"/>
<path d="M284.176 236.761L342.152 231.93V146.915L284.176 144.017V236.761Z" fill="#07AC04"/>
<path d="M231.864 179.121C230.139 177.631 228.013 176.683 225.752 176.396C223.491 176.108 221.196 176.494 219.153 177.505C217.379 178.363 215.47 178.909 213.511 179.119C213.462 174.876 214.241 170.663 215.804 166.718L216.061 166.057H212.653L212.555 166.414C212.176 167.809 211.877 169.225 211.66 170.655C211.475 170.035 211.237 169.433 210.947 168.855C208.557 164.117 203.034 162.179 202.8 162.099L202.329 161.938L202.179 162.412C202.104 162.648 200.38 168.24 202.77 172.978C204.481 176.37 207.797 178.327 209.629 179.194C207.311 179.045 205.045 178.438 202.961 177.41C201.662 176.741 200.201 176.451 198.744 176.574C197.288 176.697 195.896 177.228 194.728 178.105C188.365 182.939 184.716 190.024 184.716 197.545C184.716 207.425 191.116 216.472 201.019 220.595C201.913 220.965 202.871 221.155 203.838 221.154C205.181 221.154 206.499 220.793 207.654 220.108C209.189 219.215 210.933 218.743 212.709 218.739C214.485 218.736 216.23 219.201 217.769 220.087C218.764 220.674 219.882 221.022 221.034 221.103C222.186 221.184 223.342 220.996 224.409 220.555C234.255 216.416 240.617 207.384 240.617 197.545C240.617 190.503 237.508 183.959 231.864 179.121ZM213.397 167.029H214.648C213.241 170.797 212.524 174.787 212.531 178.81H212.307C212.006 174.849 212.375 170.867 213.397 167.029ZM203.638 172.54C201.824 168.944 202.619 164.656 202.971 163.21C204.343 163.786 208.261 165.689 210.078 169.293C211.893 172.889 211.097 177.175 210.745 178.623C209.372 178.045 205.452 176.137 203.638 172.54ZM224.032 219.659C223.105 220.042 222.1 220.205 221.099 220.134C220.097 220.063 219.126 219.76 218.262 219.249C216.573 218.274 214.657 217.763 212.707 217.767C210.757 217.771 208.842 218.291 207.158 219.272C206.295 219.785 205.326 220.091 204.325 220.164C203.325 220.238 202.321 220.078 201.393 219.698C191.853 215.726 185.688 207.031 185.688 197.545C185.688 190.331 189.197 183.527 195.316 178.879C196.489 177.993 197.921 177.515 199.392 177.519C200.478 177.518 201.549 177.777 202.515 178.274C205.178 179.545 208.088 180.212 211.039 180.23C213.989 180.247 216.908 179.614 219.585 178.376C221.457 177.45 223.56 177.097 225.632 177.36C227.703 177.624 229.651 178.493 231.231 179.859C236.657 184.51 239.645 190.791 239.645 197.545C239.645 206.992 233.517 215.672 224.032 219.659Z" fill="white"/>
<path d="M110.101 169.935V168.794H110.554V165.24C110.556 164.976 110.485 164.717 110.35 164.491C110.214 164.265 110.019 164.081 109.786 163.958C107.78 162.912 105.624 162.913 103.377 163.963C103.13 164.081 102.92 164.267 102.774 164.499C102.627 164.731 102.55 165 102.55 165.274V168.794H103.004V169.827C101.334 170.295 99.8642 171.298 98.8193 172.681C97.7745 174.064 97.2123 175.752 97.2192 177.486V185.177L98.0831 185.465L97.2192 186.041V188.352L98.0831 188.641L97.2192 189.216V191.528L98.0831 191.816L97.2192 192.392V209.996C97.2207 211.369 97.767 212.685 98.7381 213.656C99.7092 214.627 101.026 215.174 102.399 215.175H110.036C111.406 215.174 112.72 214.629 113.689 213.66C114.658 212.691 115.203 211.378 115.205 210.008V192.392L114.341 191.816L115.205 191.528V189.216L114.341 188.641L115.205 188.352V186.041L114.341 185.465L115.205 185.177V177.089C115.199 175.515 114.705 173.981 113.791 172.7C112.876 171.419 111.587 170.453 110.101 169.935ZM103.789 164.844C105.774 163.916 107.589 163.909 109.336 164.82C109.411 164.861 109.474 164.922 109.517 164.996C109.56 165.07 109.583 165.154 109.582 165.24V167.142H103.522V165.274C103.521 165.184 103.546 165.096 103.593 165.02C103.641 164.944 103.708 164.883 103.789 164.844ZM114.232 184.477L112.148 185.172L114.232 186.561V187.652L112.148 188.347L114.232 189.737V190.827L112.148 191.522L114.232 192.912V210.008C114.231 211.12 113.789 212.187 113.002 212.973C112.215 213.76 111.149 214.202 110.036 214.203H102.399C101.284 214.202 100.214 213.758 99.4252 212.97C98.6363 212.181 98.1926 211.111 98.1914 209.996V192.912L100.276 191.522L98.1914 190.827V189.737L100.276 188.347L98.1914 187.652V186.561L100.276 185.172L98.1914 184.477V177.486C98.1852 175.906 98.7174 174.37 99.7004 173.133C100.683 171.895 102.059 171.03 103.599 170.678L103.976 170.591V168.794H109.128V170.656L109.479 170.758C110.847 171.161 112.049 171.994 112.906 173.135C113.762 174.276 114.227 175.662 114.232 177.089V184.477Z" fill="white"/>
<path d="M338.596 183.246L336.149 182.757L336.725 181.605L335.602 181.38L335.796 180.213L334.571 180.008V178.901L333.576 178.617L334.52 177.437H332.882L333.224 176.583L332.013 176.381L332.424 174.941H331.113V173.597H330.627C329.096 173.597 328.242 175.416 327.961 176.144C319.507 177.618 294.96 194.618 292.158 196.573C290.994 196.195 289.268 197.08 288.907 197.276L288.337 197.588L289.16 198.41L288.914 199.146L290.425 199.712L290.094 200.539L291.045 201.332L290.191 201.973L291.477 202.745L291.251 203.873L292.687 204.078V205.207L293.521 205.374L293.105 206.831H294.032V207.983H294.935L295.345 209.21L295.766 209.126C296.744 208.93 297.581 207.578 297.909 206.978C306.051 205.525 331.188 187.843 333.636 186.111C336.492 186.453 337.541 185.69 337.654 185.6L338.119 185.228L337.009 184.304L338.596 183.246ZM333.573 185.123L333.383 185.098L333.227 185.209C332.95 185.406 305.381 204.933 297.522 206.056L297.27 206.092L297.156 206.32C296.855 206.934 296.448 207.49 295.954 207.963L295.636 207.011H295.004V205.859H294.394L294.746 204.628L293.66 204.41V203.235L292.406 203.056L292.565 202.264L291.93 201.883L292.612 201.372L291.259 200.245L291.696 199.151L290.133 198.565L290.273 198.148L289.971 197.846C290.701 197.543 291.584 197.317 291.963 197.544L292.234 197.706L292.492 197.525C292.768 197.332 320.149 178.184 328.388 177.061L328.696 177.019L328.787 176.722C328.929 176.263 329.432 175.102 330.141 174.705V175.913H331.136L330.779 177.161L331.873 177.343L331.446 178.409H332.497L331.904 179.151L333.599 179.634V180.832L334.678 181.012L334.489 182.149L335.287 182.308L334.71 183.46L336.104 183.739L335.386 184.217L336.418 185.077C335.481 185.268 334.516 185.283 333.573 185.123Z" fill="white"/>
<path d="M211.712 276.898C219.497 276.898 225.808 270.587 225.808 262.803C225.808 255.02 219.497 248.709 211.712 248.709C203.926 248.709 197.615 255.02 197.615 262.803C197.615 270.587 203.926 276.898 211.712 276.898Z" fill="#0E880B"/>
<path d="M220.587 261.412H213.104V253.93H210.319V261.412H202.836V264.195H210.319V271.677H213.104V264.195H220.587V261.412Z" fill="white"/>
<path d="M256.172 263.289L248.881 259.887V261.831H231.868V264.747H248.881V266.691L256.172 263.289Z" fill="white"/>
<path d="M167.251 263.289L174.543 259.887V261.831H191.556V264.747H174.543V266.691L167.251 263.289Z" fill="white"/>
<path d="M258.377 77.637H165.047V78.609H258.377V77.637Z" fill="white"/>
<path d="M258.603 342.994H165.272V343.966H258.603V342.994Z" fill="white"/>
<path d="M408.563 247.009L406.133 256.243C406.133 256.243 397.383 275.683 406.133 276.655C414.882 277.627 415.368 251.383 415.368 251.383L408.563 247.009Z" fill="#A0616A"/>
<path d="M423.632 180.426L406.132 249.438C406.132 249.438 412.938 251.382 416.34 253.812L423.632 180.426Z" fill="#D0CDE1"/>
<path d="M478.561 232.914L483.422 308.245C483.422 308.245 495.088 337.891 494.602 366.079C494.602 366.079 490.227 377.257 493.63 379.201C497.032 381.145 498.977 382.603 497.032 384.061C495.088 385.519 493.63 388.921 495.088 389.893C496.546 390.865 497.032 392.323 496.546 392.323H481.963C481.963 392.323 484.88 385.033 480.505 383.089C476.13 381.145 478.561 376.285 478.561 376.285L445.992 281.029L420.229 368.509C420.229 368.509 424.604 371.425 421.201 372.883C417.799 374.341 416.34 371.425 417.799 374.341C419.257 377.257 417.313 378.715 417.313 379.201C417.313 379.687 402.73 377.743 402.73 377.743C402.73 377.743 410.021 371.425 406.619 369.967C403.216 368.509 401.758 367.051 402.73 366.079C403.702 365.107 407.591 355.873 407.591 355.873C407.591 355.873 409.535 320.881 410.021 319.423C410.507 317.965 410.021 311.161 410.021 307.759C410.021 304.357 409.535 290.749 410.993 287.347C412.452 283.945 413.91 242.148 421.687 237.288C429.465 232.428 478.561 232.914 478.561 232.914Z" fill="#2F2E41"/>
<path d="M416.827 376.771C416.827 376.771 426.548 396.697 419.743 399.127C412.938 401.557 404.188 399.613 402.244 402.529C400.299 405.445 378.911 408.847 378.425 401.557C377.939 394.267 401.758 380.659 401.758 380.659L404.86 375.664L416.827 376.771Z" fill="#2F2E41"/>
<path d="M495.574 391.351C495.574 391.351 505.296 411.277 498.49 413.707C491.685 416.137 482.935 414.193 480.991 417.109C479.047 420.025 457.658 423.427 457.172 416.137C456.686 408.847 480.505 395.239 480.505 395.239L483.608 390.244L495.574 391.351Z" fill="#2F2E41"/>
<path d="M450.61 141.303C459.47 141.303 466.651 134.123 466.651 125.265C466.651 116.408 459.47 109.227 450.61 109.227C441.751 109.227 434.569 116.408 434.569 125.265C434.569 134.123 441.751 141.303 450.61 141.303Z" fill="#A0616A"/>
<path d="M461.547 133.77L459.603 147.864L445.02 159.042L441.131 153.696V135.228L461.547 133.77Z" fill="#A0616A"/>
<path d="M438.701 151.752C438.701 151.752 453.77 153.21 461.547 147.864L477.102 239.718C477.102 239.718 422.174 244.092 419.743 241.176V212.502L429.465 165.846L438.701 151.752Z" fill="#006341"/>
<path d="M460.209 143.473L465.436 147.864C465.436 147.864 486.824 151.266 485.366 157.098L479.533 226.11L481.477 249.438C481.477 249.438 464.95 245.064 452.311 249.438C439.673 253.812 449.714 155.444 449.714 155.444C449.714 155.444 461.301 144.913 460.209 143.473Z" fill="#D0CDE1"/>
<path d="M441.131 148.792C441.131 148.792 425.576 160.014 423.632 167.304C421.688 174.594 415.368 251.382 415.368 251.382C415.368 251.382 418.285 249.924 419.743 252.354C421.201 254.784 443.562 152.636 441.131 148.792Z" fill="#D0CDE1"/>
<path d="M483.908 250.411L480.423 261.779C480.423 261.779 479.533 282.973 467.867 280.057C456.2 277.141 471.269 252.355 471.269 252.355L474.672 247.009L483.908 250.411Z" fill="#A0616A"/>
<path d="M434.577 124.566C434.577 124.566 432.84 121.962 433.508 119.157C433.907 117.565 434.065 115.922 433.975 114.282C433.975 114.282 435.378 109.741 436.781 107.204C438.183 104.666 437.515 103.598 441.924 102.797C446.332 101.995 444.528 96.2524 456.15 102.463C456.542 103.01 457.087 103.429 457.717 103.667C458.347 103.904 459.034 103.95 459.69 103.798C462.094 103.331 462.962 106.67 462.962 106.67C462.962 106.67 464.565 105.735 465.167 107.07C465.768 108.406 470.054 106.269 470.054 115.284C470.054 124.299 465.176 132.351 465.176 132.351C465.176 132.351 465.534 117.187 457.586 115.651C449.638 114.115 441.089 109.641 439.018 115.384C437.9 118.607 436.41 121.689 434.577 124.566Z" fill="#2F2E41"/>
<path d="M465.351 128.172C466.217 128.172 466.918 127.236 466.918 126.082C466.918 124.928 466.217 123.992 465.351 123.992C464.485 123.992 463.783 124.928 463.783 126.082C463.783 127.236 464.485 128.172 465.351 128.172Z" fill="#A0616A"/>
<path d="M481.477 153.696C481.477 153.696 489.255 151.752 491.685 164.874C494.116 177.996 497.032 215.418 497.032 215.418L485.366 254.784C485.366 254.784 473.7 248.466 471.269 249.438L480.45 215.262L472.727 180.426C472.727 180.426 479.533 153.696 481.477 153.696Z" fill="#D0CDE1"/>
<path opacity="0.15" d="M470.169 181.091L480.377 215.111L470.169 249.617L476.002 215.111L470.169 181.091Z" fill="black"/>
</svg>
