<?xml version="1.0" encoding="UTF-8" standalone="no"?>
<!DOCTYPE svg PUBLIC "-//W3C//DTD SVG 1.1//EN" "http://www.w3.org/Graphics/SVG/1.1/DTD/svg11.dtd">
<svg width="100%" height="100%" viewBox="0 0 610 233" version="1.1" xmlns="http://www.w3.org/2000/svg" xmlns:xlink="http://www.w3.org/1999/xlink" xml:space="preserve" xmlns:serif="http://www.serif.com/" style="fill-rule:evenodd;clip-rule:evenodd;stroke-linejoin:round;stroke-miterlimit:2;">
    <g transform="matrix(1,0,0,1,-9968.86,-2896.04)">
        <g id="saints_logo" transform="matrix(0.239048,0,0,0.0704425,9968.86,2896.04)">
            <rect x="0" y="0" width="2550" height="3300" style="fill:none;"/>
            <g transform="matrix(1.94315,0,0,2.2842,-1202.52,-2176.01)">
                <g transform="matrix(2.10309,0,-0.0224115,6.80636,164.136,236.875)">
                    <path d="M229.692,163.588C229.692,184.871 237.408,200.302 261.884,221.851C281.039,238.612 286.892,248.722 286.892,262.29C286.892,275.592 281.039,280.381 271.727,280.381C262.416,280.381 256.563,275.592 256.563,262.29L256.563,248.988L228.894,248.988L228.894,260.428C228.894,290.224 243.793,307.251 272.525,307.251C301.258,307.251 316.157,290.224 316.157,260.428C316.157,239.144 308.441,223.714 283.965,202.164C264.81,185.403 258.957,175.294 258.957,161.726C258.957,148.423 264.278,143.369 273.59,143.369C282.901,143.369 288.222,148.423 288.222,161.726L288.222,169.441L315.89,169.441L315.89,163.588C315.89,133.791 301.258,116.764 272.791,116.764C244.325,116.764 229.692,133.791 229.692,163.588Z" style="fill:white;fill-rule:nonzero;"/>
                </g>
                <g transform="matrix(2.10309,0,-0.0224115,6.80636,1249.64,236.875)">
                    <path d="M229.692,163.588C229.692,184.871 237.408,200.302 261.884,221.851C281.039,238.612 286.892,248.722 286.892,262.29C286.892,275.592 281.039,280.381 271.727,280.381C262.416,280.381 256.563,275.592 256.563,262.29L256.563,248.988L228.894,248.988L228.894,260.428C228.894,290.224 243.793,307.251 272.525,307.251C301.258,307.251 316.157,290.224 316.157,260.428C316.157,239.144 308.441,223.714 283.965,202.164C264.81,185.403 258.957,175.294 258.957,161.726C258.957,148.423 264.278,143.369 273.59,143.369C282.901,143.369 288.222,148.423 288.222,161.726L288.222,169.441L315.89,169.441L315.89,163.588C315.89,133.791 301.258,116.764 272.791,116.764C244.325,116.764 229.692,133.791 229.692,163.588Z" style="fill:white;fill-rule:nonzero;"/>
                </g>
                <g transform="matrix(2.10309,0,0,6.80636,-5421,-159.885)">
                    <path d="M3090.04,363.415L3060.14,363.415L3037.63,210.174L3037.1,210.174L3014.59,363.415L2987.61,363.415L3017.41,177.185L3060.24,177.185L3090.04,363.415Z" style="fill:white;"/>
                </g>
                <g transform="matrix(2.10309,0,0,6.80636,199.312,236.875)">
                    <rect x="441.197" y="118.893" width="29.265" height="186.23" style="fill:white;fill-rule:nonzero;"/>
                </g>
                <g transform="matrix(2.10309,0,0,6.80636,220.343,236.875)">
                    <path d="M554.265,305.123L584.328,305.123L584.328,118.893L558.256,118.893L558.256,230.365L557.724,230.365L528.193,118.893L491.479,118.893L491.479,305.123L517.817,305.123L517.817,170.239L518.349,170.239L554.265,305.123Z" style="fill:white;fill-rule:nonzero;"/>
                </g>
                <g transform="matrix(2.10309,0,0,6.80636,241.374,236.875)">
                    <path d="M596.832,145.497L627.427,145.497L627.427,305.123L656.692,305.123L656.692,145.497L687.287,145.497L687.287,118.893L596.832,118.893L596.832,145.497Z" style="fill:white;fill-rule:nonzero;"/>
                </g>
            </g>
        </g>
    </g>
</svg>
